<?xml version="1.0" encoding="UTF-8"?>
<svg id="Layer_1" data-name="Layer 1" xmlns="http://www.w3.org/2000/svg" viewBox="0 0 50 50">
  <defs>
    <style>
      .cls-1 {
        fill: #2972b9;
      }

      .cls-1, .cls-2, .cls-3 {
        stroke-width: 0px;
      }

      .cls-1, .cls-3 {
        fill-rule: evenodd;
      }

      .cls-2 {
        fill: none;
      }

      .cls-3 {
        fill: #18488d;
      }
    </style>
  </defs>
  <g>
    <path class="cls-1" d="M24.84,29.09c-4.96-3.37-10.84-7.64-16.17-11.41,1.96.68,4.22.34,5.94-1.07,1.79-1.47,2.53-3.75,2.15-5.88h0c2.24,5.15,5.34,12.29,8.14,18.31h0c-1.68-6.5-3.84-14.07-5.4-19.52h0c1.07,1.91,3.1,3.2,5.44,3.2s4.22-1.19,5.32-2.98c-1.73,6.37-3.58,13.47-5.28,19.29,0,0,.02,0,.03,0,2.83-6.07,5.9-13.09,8.18-18.3h0c-.39,2.13.36,4.4,2.15,5.88,1.72,1.42,3.98,1.75,5.94,1.07-5.33,3.77-11.22,8.04-16.18,11.41,0,0,.01.02.01.03,6.07-2.82,12.94-6.22,18.03-8.74h0c-1.67,1.38-2.56,3.6-2.14,5.88.4,2.19,1.92,3.9,3.86,4.65-6.51-.54-13.77-1.07-19.74-1.68,0,0,0,.01,0,.02,6.46,1.79,13.91,3.66,19.44,5.04h0c-2.16-.03-4.28,1.08-5.44,3.09-1.11,1.93-1.07,4.21-.08,6.04-4.57-4.61-9.83-9.79-13.97-14.11h0c3.75,5.51,8.3,11.8,11.59,16.38h0c-1.63-1.42-3.97-1.94-6.15-1.15-2.1.75-3.53,2.53-3.96,4.56-.52-6.52-1.19-13.76-1.55-19.75,0,0-.02,0-.03,0h-.01c-.37,5.99-1.03,13.23-1.55,19.75-.42-2.03-1.86-3.81-3.96-4.56-2.18-.79-4.51-.27-6.15,1.15h0c3.3-4.58,7.83-10.87,11.58-16.37h0c-4.14,4.32-9.38,9.5-13.96,14.1.99-1.82,1.04-4.11-.08-6.04-1.16-2.01-3.27-3.12-5.44-3.09h0c5.52-1.38,12.97-3.25,19.42-5.04,0,0,0-.02,0-.02-5.97.61-13.22,1.14-19.73,1.68,1.94-.75,3.45-2.45,3.86-4.65.42-2.28-.47-4.5-2.14-5.88h0c5.09,2.52,11.95,5.92,18.02,8.74,0-.01.01-.02.02-.03Z"/>
    <path class="cls-3" d="M24.98.91c3.08,0,5.57,2.5,5.57,5.57s-2.5,5.57-5.57,5.57-5.57-2.5-5.57-5.57S21.9.91,24.98.91h0ZM41.38,9.52c1.81,1.49,2.07,4.17.57,5.97-1.49,1.81-4.17,2.07-5.97.57s-2.07-4.17-.57-5.97c1.49-1.81,4.17-2.07,5.97-.57h0ZM8.62,9.52c-1.81,1.49-2.07,4.17-.57,5.97,1.49,1.81,4.17,2.07,5.97.57,1.81-1.49,2.07-4.17.57-5.97s-4.17-2.07-5.97-.57h0ZM47.45,25.12c.29,1.58-.75,3.1-2.33,3.39-1.58.29-3.1-.75-3.39-2.33-.29-1.58.75-3.1,2.33-3.39,1.58-.29,3.1.75,3.39,2.33h0ZM42.17,39.22c-.41.71-1.32.95-2.03.54-.71-.41-.95-1.32-.54-2.03.41-.71,1.32-.95,2.03-.54.71.41.95,1.32.54,2.03h0ZM7.77,39.22c.41.71,1.32.95,2.03.54.71-.41.95-1.32.54-2.03-.41-.71-1.32-.95-2.03-.54-.71.41-.95,1.32-.54,2.03h0ZM31.65,47.91c-.77.28-1.62-.12-1.9-.89-.28-.77.12-1.62.89-1.9.77-.28,1.62.12,1.9.89.28.77-.12,1.62-.89,1.9h0ZM18.29,47.91c.77.28,1.62-.12,1.9-.89.28-.77-.12-1.62-.89-1.9-.77-.28-1.62.12-1.9.89-.28.77.12,1.62.89,1.9h0ZM2.55,25.12c-.29,1.58.75,3.1,2.33,3.39,1.58.29,3.1-.75,3.39-2.33.29-1.58-.75-3.1-2.33-3.39-1.58-.29-3.1.75-3.39,2.33Z"/>
  </g>
  <rect class="cls-2" width="50" height="50"/>
</svg>