<?xml version="1.0" encoding="UTF-8"?>
<svg id="Layer_1" data-name="Layer 1" xmlns="http://www.w3.org/2000/svg" version="1.1" xmlns:xlink="http://www.w3.org/1999/xlink" viewBox="0 0 283.5 283.5">
  <defs>
    <style>
      .cls-1, .cls-2, .cls-3, .cls-4, .cls-5, .cls-6, .cls-7, .cls-8, .cls-9, .cls-10, .cls-11, .cls-12, .cls-13 {
        stroke-width: 0px;
      }

      .cls-1, .cls-9 {
        fill: #fff;
      }

      .cls-1, .cls-14 {
        display: none;
      }

      .cls-2 {
        fill: url(#radial-gradient-8);
      }

      .cls-3 {
        fill: none;
      }

      .cls-4 {
        fill: url(#radial-gradient-2);
      }

      .cls-5 {
        fill: url(#radial-gradient-7);
      }

      .cls-6 {
        fill: url(#radial-gradient-5);
      }

      .cls-7 {
        fill: url(#radial-gradient);
      }

      .cls-8 {
        fill: url(#radial-gradient-10);
      }

      .cls-10 {
        fill: url(#radial-gradient-6);
      }

      .cls-11 {
        fill: url(#radial-gradient-9);
      }

      .cls-12 {
        fill: url(#radial-gradient-3);
      }

      .cls-13 {
        fill: url(#radial-gradient-4);
      }
    </style>
    <radialGradient id="radial-gradient" cx="-1016.8" cy="2250.4" fx="-1016.8" fy="2250.4" r="74.5" gradientTransform="translate(4112.2 8923.1) scale(3.9 -3.9)" gradientUnits="userSpaceOnUse">
      <stop offset="0" stop-color="#0c8acb"/>
      <stop offset="1" stop-color="#0a4774"/>
    </radialGradient>
    <radialGradient id="radial-gradient-2" cx="35.9" cy="196.4" fx="35.9" fy="196.4" r="9.2" gradientTransform="translate(0 284.8) scale(1 -1)" gradientUnits="userSpaceOnUse">
      <stop offset="0" stop-color="#5abf90"/>
      <stop offset="1" stop-color="#08a775"/>
    </radialGradient>
    <radialGradient id="radial-gradient-3" cx="46.4" cy="173.4" fx="46.4" fy="173.4" r="9" gradientTransform="translate(0 284.8) scale(1 -1)" gradientUnits="userSpaceOnUse">
      <stop offset="0" stop-color="#5abf90"/>
      <stop offset="1" stop-color="#08a775"/>
    </radialGradient>
    <radialGradient id="radial-gradient-4" cx="98" cy="166.1" fx="98" fy="166.1" r="9" gradientTransform="translate(0 284.8) scale(1 -1)" gradientUnits="userSpaceOnUse">
      <stop offset="0" stop-color="#5abf90"/>
      <stop offset="1" stop-color="#08a775"/>
    </radialGradient>
    <radialGradient id="radial-gradient-5" cx="74.4" cy="131" fx="74.4" fy="131" r="8" gradientTransform="translate(0 284.8) scale(1 -1)" gradientUnits="userSpaceOnUse">
      <stop offset="0" stop-color="#5abf90"/>
      <stop offset="1" stop-color="#08a775"/>
    </radialGradient>
    <radialGradient id="radial-gradient-6" cx="70.7" cy="90.7" fx="70.7" fy="90.7" r="8" gradientTransform="translate(0 284.8) scale(1 -1)" gradientUnits="userSpaceOnUse">
      <stop offset="0" stop-color="#5abf90"/>
      <stop offset="1" stop-color="#08a775"/>
    </radialGradient>
    <radialGradient id="radial-gradient-7" cx="22.3" cy="157.1" fx="22.3" fy="157.1" r="7.9" gradientTransform="translate(0 284.8) scale(1 -1)" gradientUnits="userSpaceOnUse">
      <stop offset="0" stop-color="#5abf90"/>
      <stop offset="1" stop-color="#08a775"/>
    </radialGradient>
    <radialGradient id="radial-gradient-8" cx="157.1" cy="76.7" fx="157.1" fy="76.7" r="65.7" gradientTransform="translate(0 284.8) scale(1 -1)" gradientUnits="userSpaceOnUse">
      <stop offset="0" stop-color="#5abf90"/>
      <stop offset="1" stop-color="#08a775"/>
    </radialGradient>
    <radialGradient id="radial-gradient-9" cx="141.6" cy="200.8" fx="141.6" fy="200.8" r="108.4" gradientTransform="translate(0 284.8) scale(1 -1)" gradientUnits="userSpaceOnUse">
      <stop offset="0" stop-color="#5abf90"/>
      <stop offset="1" stop-color="#08a775"/>
    </radialGradient>
    <radialGradient id="radial-gradient-10" cx="121.5" cy="126.5" fx="121.5" fy="126.5" r="102.7" gradientTransform="translate(0 284.8) scale(1 -1)" gradientUnits="userSpaceOnUse">
      <stop offset="0" stop-color="#5abf90"/>
      <stop offset="1" stop-color="#08a775"/>
    </radialGradient>
  </defs>
  <rect class="cls-3" y="0" width="283.5" height="283.5"/>
  <g class="cls-14">
    <circle class="cls-7" cx="141.7" cy="141.7" r="140.3"/>
    <g id="Yoz">
      <g>
        <path class="cls-9" d="M57.4,94.5c0,4.6-3.8,10.2-8.1,11.8-3.4,1.3-6-.3-6.3-3.9-.4-4.8,4-11.3,8.5-12.6,3.4-1,5.8,1,5.8,4.7h0Z"/>
        <path class="cls-9" d="M66.1,114.7c0,5-3.8,10.7-8,11.8-2.6.7-4.7-.5-5.4-3.1-1.2-4.8,2.4-11.9,7.1-13.7,3.6-1.4,6.3.7,6.3,4.9h0Z"/>
        <path class="cls-9" d="M111.7,120.7c0,5.1-6.4,11.5-11.5,11.4-2.7,0-4.5-2.1-4.2-4.9.6-4.9,5.7-10.1,10.6-10.7,2.9-.4,5,1.4,5,4.2h0Z"/>
        <path class="cls-9" d="M82.2,162c-3.2,0-5.3-2.3-5.2-5.5.2-3.6,1.8-6.4,5-8.2,3.9-2.2,7.5-.2,7.9,4.2.3,3.8-2.9,8.4-6.5,9.4-.5.1-1,.1-1.2.2h0Z"/>
        <path class="cls-9" d="M86.7,187.7c0,3.7-2.4,7.4-5.7,8.7-3.5,1.4-6.8-.6-7.1-4.4-.3-3.6,2-7.5,5.2-9.1,4.1-2,7.6.2,7.6,4.7h0Z"/>
        <path class="cls-9" d="M33,134c0-3.2,1.2-6.1,3.7-8.3,1.2-1.1,2.7-1.9,4.4-1.2,1.7.6,2.4,2.1,2.6,3.8.5,3.9-.6,7.3-3.4,10-1.3,1.2-2.8,2.1-4.7,1.3s-2.4-2.5-2.7-4.3v-1.3h.1Z"/>
      </g>
      <path class="cls-9" d="M223.1,159.1s0,1.9-1.4,4.7c-5.5,10.6-14.3,17-26,19.4-8,1.6-15.7.3-23.4-1.8-18.2-4.9-36-4.1-53,4.5-6.6,3.3-12.5,7.7-16.6,13.9-3.3,4.9-4.8,10.4-6,16.1-1.2,5.8-1.7,11.7-1.3,17.6.2,2.8.3,4.1,1.4,10.6-.8-1.1-1.6-2.2-2.1-2.9-5.2-8-7.9-16.7-7.8-26.2,0-14.7,5.4-27.2,16.1-37.2,6.9-6.4,15.4-9.9,24.6-11.7,12.4-2.3,24.7-1.5,36.9,1.2,7.1,1.6,13.9,4,21,5.6,14.2,3.2,26.3-.7,36-11.7,1-1.1,1.7-2.1,1.7-2.1h-.1Z"/>
      <path class="cls-9" d="M124.1,111.4c4.7-4.6,10.4-9.4,14.7-13,11.6-9.7,24.4-17.6,37.8-24.6,4.9-2.5,10-4.4,15.6-4.5,5.9,0,10.1,2.6,12.4,7.9,2.3,5.2,3.6,10.7,4.3,16.3,1.5,11,1.3,21.9.6,32.9-.2,2.7-.6,5.3-.7,8,0,1.8-.1,3.7.2,5.5.9,4.2,4,6.7,8.3,6.9,6.7.2,12.2-2.6,16.9-6.9,2.8-2.6,5-6,7.1-9.2s1.2-4.1,0-5.9c-1.8-2.7-3.8-5.9-4.5-9.2-1.1-4.9,2.2-9.2,7.4-10.4,2.8-.6,3.4-2.2,1.6-4.5-.6-.7-1.3-1.4-2.1-1.9-8.3-5.7-16.6-11.5-25.1-16.9-4.7-3-7.4-7.1-7.4-12.6,0-10.2-5.2-17.1-13.9-21.7-9.8-5.1-20.4-8-31.3-9.4-19.2-2.4-38-.9-56.7,3.9-.4,0-1.5.5-1.5.5,6.8,5.8,13.7,11.6,15.5,20.8-.7-.4-1.4-.8-2-1.3-6.7-4.3-13.8-7.7-21.8-9-7.3-1.2-14.3-.4-20.9,2.9-3.7,1.9-5.2,5.5-5.6,9.6-.6,7,2.4,12.9,6.5,18.1,3.3,4.1,7.1,7.8,10.8,11.6-2.3.6-4.9.3-7.5-.3-7.9-1.9-14.2-6.5-19.8-12.2-2-2-3.9-4.2-5.9-6.4-12.8,9.4-21.6,22.1-29,35.9h-.4c.3-1.9.5-3.9,1-5.8,2.8-11.1,8.4-20.8,15.5-29.7,4.4-5.5,9.4-10.3,15.3-14.2.7-.4,1.4-.8,2.3-1.4,1.3,7,3.5,14.5,9.2,19,0,0-1.4-2.9-2-3.8-2.1-3.7-3.6-7.6-4.1-11.9-.6-6,1.3-11.2,5-15.9,10.3-6,21.1-7.8,32.5-3.5l2.8,1.4s-.7-1.8-3.4-3.5c-3.5-2.2-7.2-3.9-11.3-5.4.3-.2.8-.5,1.4-.8,6.1-3,12.5-4.9,19.1-6.3,11.5-2.5,23.3-3.7,35-3.5,15.8.3,31.2,2.4,45.6,9.1,5.9,2.7,11.4,6.1,16.1,10.6,4.1,3.9,6,8.9,7.4,14.2.9,3.6,1.6,7.2,2.4,10.8,1,4.2,3.3,7.4,6.9,9.9,9.1,6.3,18,12.9,27.1,19.1,3.9,2.7,4.7,6,3.7,10.3-1.6,6.5-5.2,12-9.5,17-.4.5-.7,1-.9,1.6-2.6,7.4-5.9,14.4-11.4,20.2-6.6,7-14.9,10.5-24.3,11.9-6.5.9-13,1.4-19.5-2.3-3.9-2.2-6.7-7.6-6.2-12s4.1-11.7,6.6-17.3c1.6-3.7,3.4-7.3,5-11,1.3-2.8,2-5.8,1.7-8.9-.7-7.6-5.7-11.4-12.4-13.4-6.3-1.9-12.8-1.6-19.2-.5-13,2.1-25,7.2-36.6,13.3l-4.4,2.2v-.4Z"/>
      <path class="cls-9" d="M160.5,58.3c-36.2,8.8-65.1,28.8-86.4,59.1-16.9,24-23.9,50.9-20.9,80.3,1.6,15.4,6.5,29.9,14.2,43.4,9.7,18.1,30.6,19.8,37.2,20.5-3.9-3.6-9.4-9-12.9-13.1-15.8-19-24-40.8-24.5-65.6-.2-12.5,1.9-24.8,5.7-36.7,3.8-11.6,8.8-22.7,15.8-32.7,6.3-9,13.9-16.7,22.4-23.6,21.2-17.3,45.6-27.4,72.4-32,4-.7,8-1.2,12.4-1.8-10-1.3-24.3-.4-35.4,2.3h0Z"/>
    </g>
  </g>
  <path class="cls-1" d="M141.7,1.4C64.2,1.4,1.4,64.2,1.4,141.7s62.8,140.3,140.3,140.3,140.3-62.8,140.3-140.3S219.2,1.4,141.7,1.4ZM40.4,138.3c-1.3,1.2-2.8,2.1-4.7,1.3s-2.4-2.5-2.7-4.3v-1.3c0-3.2,1.2-6.1,3.7-8.3,1.2-1.1,2.7-1.9,4.4-1.2,1.7.6,2.4,2.1,2.6,3.8.5,3.9-.6,7.3-3.4,10h.1ZM43.1,102.4c-.4-4.8,4-11.3,8.5-12.6,3.4-1,5.8,1,5.8,4.7s-3.8,10.2-8.1,11.8c-3.4,1.3-6-.3-6.3-3.9h.1ZM59.8,109.8c3.6-1.4,6.3.7,6.3,4.9s-3.8,10.7-8,11.8c-2.6.7-4.7-.5-5.4-3.1-1.2-4.8,2.4-11.9,7.1-13.7h0ZM71.2,247.4c-1.3-2.1-2.7-4.4-3.8-6.5-7.7-13.5-12.6-27.9-14.2-43.4-3-29.3,4-56.3,20.9-80.3,21.4-30.3,50.2-50.2,86.4-59.1,11.1-2.7,25.4-3.5,35.4-2.3-4.4.6-8.4,1.1-12.4,1.8-26.8,4.6-51.2,14.7-72.4,32-8.5,6.9-16.2,14.7-22.4,23.6-7,10-12,21.1-15.8,32.7-3.9,11.9-5.9,24.1-5.7,36.7.4,24.7,8.7,46.6,24.5,65.6,3.4,4.2,9,9.6,12.9,13.1-11.8-3.2-23-8-33.3-14h-.1ZM111.7,120.7c0,5.1-6.4,11.5-11.5,11.4-2.7,0-4.5-2.1-4.2-4.9.6-4.9,5.7-10.1,10.6-10.7,2.9-.4,5,1.4,5,4.2h0ZM83.4,161.9c-.5.1-1,.1-1.2.2-3.2,0-5.3-2.3-5.2-5.5.2-3.6,1.8-6.4,5-8.2,3.9-2.2,7.5-.2,7.9,4.2.3,3.8-2.9,8.4-6.5,9.4h0ZM86.7,187.7c0,3.7-2.4,7.4-5.7,8.7-3.5,1.4-6.8-.6-7.1-4.4-.3-3.6,2-7.5,5.2-9.1,4.1-2,7.6.2,7.6,4.7h0ZM221.7,163.7c-5.5,10.6-14.3,17-26,19.4-8,1.6-15.7.3-23.4-1.8-18.2-4.9-36-4.1-53,4.5-6.6,3.3-12.5,7.7-16.6,13.9-3.3,4.9-4.8,10.4-6,16.1-1.2,5.8-1.7,11.7-1.3,17.6.2,2.8.3,4.1,1.4,10.6-.8-1.1-1.6-2.2-2.1-2.9-5.2-8-7.9-16.7-7.8-26.2,0-14.7,5.4-27.2,16.1-37.2,6.9-6.4,15.4-9.9,24.6-11.7,12.4-2.3,24.7-1.5,36.9,1.2,7.1,1.6,13.9,4,21,5.6,14.2,3.2,26.3-.7,36-11.7,1-1.1,1.7-2.1,1.7-2.1,0,0,0,1.9-1.4,4.7h-.1ZM245.7,127.7c-.4.5-.7,1-.9,1.6-2.6,7.4-5.9,14.4-11.4,20.2-6.6,7-14.9,10.5-24.3,11.9-6.5.9-13,1.4-19.5-2.3-3.9-2.2-6.7-7.6-6.2-12,.7-6.2,4.1-11.7,6.6-17.3,1.6-3.7,3.4-7.3,5-11,1.3-2.8,2-5.8,1.7-8.9-.7-7.6-5.7-11.4-12.4-13.4-6.3-1.9-12.8-1.6-19.2-.5-13,2.1-25,7.2-36.6,13.3l-4.4,2.2c4.7-4.6,10.4-9.4,14.7-13,11.6-9.7,24.4-17.6,37.8-24.6,4.9-2.5,10-4.4,15.6-4.5,5.9,0,10.1,2.6,12.4,7.9,2.3,5.2,3.6,10.7,4.3,16.3,1.5,11,1.3,21.9.6,32.9-.2,2.7-.6,5.3-.7,8,0,1.8-.1,3.7.2,5.5.9,4.2,4,6.7,8.3,6.9,6.7.2,12.2-2.6,16.9-6.9,2.8-2.6,5-6,7.1-9.2,1.2-1.8,1.2-4.1,0-5.9-1.8-2.7-3.8-5.9-4.5-9.2-1.1-4.9,2.2-9.2,7.4-10.4,2.8-.6,3.4-2.2,1.6-4.5-.6-.7-1.3-1.4-2.1-1.9-8.3-5.7-16.6-11.5-25.1-16.9-4.7-3-7.4-7.1-7.4-12.6,0-10.2-5.2-17.1-13.9-21.7-9.8-5.1-20.4-8-31.3-9.4-19.2-2.4-38-.9-56.7,3.9-.4,0-1.5.5-1.5.5,6.8,5.8,13.7,11.6,15.5,20.8-.7-.4-1.4-.8-2-1.3-6.7-4.3-13.8-7.7-21.8-9-7.3-1.2-14.3-.4-20.9,2.9-3.7,1.9-5.2,5.5-5.6,9.6-.6,7,2.4,12.9,6.5,18.1,3.3,4.1,7.1,7.8,10.8,11.6-2.3.6-4.9.3-7.5-.3-7.9-1.9-14.2-6.5-19.8-12.2-2-2-3.9-4.2-5.9-6.4-12.8,9.4-21.6,22.1-29,35.9h-.4c.3-1.9.5-3.9,1-5.8,2.8-11.1,8.4-20.8,15.5-29.7,4.4-5.5,9.4-10.3,15.3-14.2.7-.4,1.4-.8,2.3-1.4,1.3,7,3.5,14.5,9.2,19,0,0-1.4-2.9-2-3.8-2.1-3.7-3.6-7.6-4.1-11.9-.6-6,1.3-11.2,5-15.9,10.3-6,21.1-7.8,32.5-3.5l2.8,1.4s-.7-1.8-3.4-3.5c-3.5-2.2-7.2-3.9-11.3-5.4.3-.2.8-.5,1.4-.8,6.1-3,12.5-4.9,19.1-6.3,11.5-2.5,23.3-3.7,35-3.5,15.8.3,31.2,2.4,45.6,9.1,5.9,2.7,11.4,6.1,16.1,10.6,4.1,3.9,6,8.9,7.4,14.2.9,3.6,1.6,7.2,2.4,10.8,1,4.2,3.3,7.4,6.9,9.9,9.1,6.3,18,12.9,27.1,19.1,3.9,2.7,4.7,6,3.7,10.3-1.6,6.5-5.2,12-9.5,17v-.4Z"/>
  <g id="Yoz-2">
    <g>
      <path class="cls-4" d="M44.2,84.2c0,5.3-4.4,11.8-9.4,13.6-3.9,1.5-6.9-.3-7.3-4.5-.5-5.6,4.6-13.1,9.8-14.6,3.9-1.2,6.7,1.2,6.7,5.4h.1Z"/>
      <path class="cls-12" d="M54.3,107.5c0,5.8-4.4,12.4-9.3,13.6-3,.8-5.4-.6-6.2-3.6-1.4-5.6,2.8-13.8,8.2-15.8,4.2-1.6,7.3.8,7.3,5.7h0Z"/>
      <path class="cls-13" d="M107,114.5c0,5.9-7.4,13.3-13.3,13.2-3.1,0-5.2-2.4-4.9-5.7.7-5.7,6.6-11.7,12.3-12.4,3.4-.5,5.8,1.6,5.8,4.9h.1Z"/>
      <path class="cls-6" d="M72.9,162.2c-3.7,0-6.1-2.7-6-6.4.2-4.2,2.1-7.4,5.8-9.5,4.5-2.5,8.7-.2,9.1,4.9.3,4.4-3.4,9.7-7.5,10.9-.6.1-1.2.1-1.4.2h0Z"/>
      <path class="cls-10" d="M78.1,192c0,4.3-2.8,8.6-6.6,10.1-4,1.6-7.9-.7-8.2-5.1-.3-4.2,2.3-8.7,6-10.5,4.7-2.3,8.8.2,8.8,5.4h0Z"/>
      <path class="cls-5" d="M16,129.8c.1-3.7,1.4-7.1,4.3-9.6,1.4-1.3,3.1-2.2,5.1-1.4,2,.7,2.8,2.4,3,4.4.6,4.5-.7,8.4-3.9,11.6-1.5,1.4-3.2,2.4-5.4,1.5s-2.8-2.9-3.1-5v-1.5h.1Z"/>
    </g>
    <path class="cls-2" d="M235.9,158.9s0,2.2-1.6,5.4c-6.4,12.3-16.5,19.7-30.1,22.4-9.3,1.9-18.2.3-27.1-2.1-21.1-5.7-41.6-4.7-61.3,5.2-7.6,3.8-14.5,8.9-19.2,16.1-3.8,5.7-5.6,12-6.9,18.6-1.4,6.7-2,13.5-1.5,20.4.2,3.2.3,4.7,1.6,12.3-.9-1.3-1.9-2.5-2.4-3.4-6-9.3-9.1-19.3-9-30.3.1-17,6.2-31.5,18.6-43,8-7.4,17.8-11.5,28.5-13.5,14.3-2.7,28.6-1.7,42.7,1.4,8.2,1.9,16.1,4.6,24.3,6.5,16.4,3.7,30.4-.8,41.6-13.5,1.2-1.3,2-2.4,2-2.4h-.1Z"/>
    <path class="cls-11" d="M121.4,103.7c5.4-5.3,12-10.9,17-15,13.4-11.2,28.2-20.4,43.7-28.5,5.7-2.9,11.6-5.1,18-5.2,6.8-.1,11.7,3,14.3,9.1,2.7,6,4.2,12.4,5,18.9,1.7,12.7,1.5,25.3.7,38.1-.2,3.1-.7,6.1-.8,9.3,0,2.1-.1,4.3.2,6.4,1,4.9,4.6,7.7,9.6,8,7.7.2,14.1-3,19.5-8,3.2-3,5.8-6.9,8.2-10.6s1.4-4.7,0-6.8c-2.1-3.1-4.4-6.8-5.2-10.6-1.3-5.7,2.5-10.6,8.6-12,3.2-.7,3.9-2.5,1.9-5.2-.7-.8-1.5-1.6-2.4-2.2-9.6-6.6-19.2-13.3-29-19.5-5.4-3.5-8.6-8.2-8.6-14.6,0-11.8-6-19.8-16.1-25.1-11.3-5.9-23.6-9.3-36.2-10.9-22.2-2.8-44-1-65.6,4.5-.5.1-1.7.6-1.7.6,7.9,6.7,15.8,13.4,17.9,24.1-.8-.5-1.6-.9-2.3-1.5-7.7-5-16-8.9-25.2-10.4-8.4-1.4-16.5-.5-24.2,3.4-4.3,2.2-6,6.4-6.5,11.1-.7,8.1,2.8,14.9,7.5,20.9,3.8,4.7,8.2,9,12.5,13.4-2.7.7-5.7.3-8.7-.3-9.1-2.2-16.4-7.5-22.9-14.1-2.3-2.3-4.5-4.9-6.8-7.4-14.8,10.9-25,25.6-33.5,41.5h-.5c.3-2.2.6-4.5,1.2-6.7,3.2-12.8,9.7-24.1,17.9-34.4,5.1-6.4,10.9-11.9,17.7-16.4.8-.5,1.6-.9,2.7-1.6,1.5,8.1,4,16.8,10.6,22,0,0-1.6-3.4-2.3-4.4-2.4-4.3-4.2-8.8-4.7-13.8-.7-6.9,1.5-13,5.8-18.4,11.9-6.9,24.4-9,37.6-4l3.2,1.6s-.8-2.1-3.9-4c-4-2.5-8.3-4.5-13.1-6.2.3-.2.9-.6,1.6-.9,7.1-3.5,14.5-5.7,22.1-7.3,13.3-2.9,26.9-4.3,40.5-4,18.3.3,36.1,2.8,52.7,10.5,6.8,3.1,13.2,7.1,18.6,12.3,4.7,4.5,6.9,10.3,8.6,16.4,1,4.2,1.9,8.3,2.8,12.5,1.2,4.9,3.8,8.6,8,11.5,10.5,7.3,20.8,14.9,31.3,22.1,4.5,3.1,5.4,6.9,4.3,11.9-1.9,7.5-6,13.9-11,19.7-.5.6-.8,1.2-1,1.9-3,8.6-6.8,16.7-13.2,23.4-7.6,8.1-17.2,12.1-28.1,13.8-7.5,1-15,1.6-22.6-2.7-4.5-2.5-7.7-8.8-7.2-13.9.8-7.2,4.7-13.5,7.6-20,1.9-4.3,3.9-8.4,5.8-12.7,1.5-3.2,2.3-6.7,2-10.3-.8-8.8-6.6-13.2-14.3-15.5-7.3-2.2-14.8-1.9-22.2-.6-15,2.4-28.9,8.3-42.3,15.4l-5.1,2.5v-.5Z"/>
    <path class="cls-8" d="M163.5,42.3c-41.9,10.2-75.3,33.3-99.9,68.4-19.5,27.8-27.6,58.9-24.2,92.9,1.9,17.8,7.5,34.6,16.4,50.2,11.2,20.9,35.4,22.9,43,23.7-4.5-4.2-10.9-10.4-14.9-15.2-18.3-22-27.8-47.2-28.3-75.9-.2-14.5,2.2-28.7,6.6-42.4,4.4-13.4,10.2-26.3,18.3-37.8,7.3-10.4,16.1-19.3,25.9-27.3,24.5-20,52.7-31.7,83.7-37,4.6-.8,9.3-1.4,14.3-2.1-11.6-1.5-28.1-.5-40.9,2.7h0Z"/>
  </g>
</svg>