<?xml version="1.0" encoding="UTF-8"?>
<svg id="Layer_1" data-name="Layer 1" xmlns="http://www.w3.org/2000/svg" version="1.1" xmlns:xlink="http://www.w3.org/1999/xlink" viewBox="0 0 283.5 283.5">
  <defs>
    <style>
      .cls-1, .cls-2, .cls-3, .cls-4 {
        stroke-width: 0px;
      }

      .cls-1, .cls-4, .cls-5 {
        fill: #fff;
      }

      .cls-1, .cls-6 {
        display: none;
      }

      .cls-2 {
        fill: url(#radial-gradient-2);
      }

      .cls-3 {
        fill: url(#radial-gradient);
      }

      .cls-5 {
        stroke: #fff;
        stroke-miterlimit: 10;
        stroke-width: .5px;
      }
    </style>
    <radialGradient id="radial-gradient" cx="141.8" cy="141.8" fx="141.8" fy="141.8" r="141.8" gradientUnits="userSpaceOnUse">
      <stop offset="0" stop-color="#5abf90"/>
      <stop offset="1" stop-color="#08a775"/>
    </radialGradient>
    <radialGradient id="radial-gradient-2" cx="-1016.8" cy="2250.4" fx="-1016.8" fy="2250.4" r="74.5" gradientTransform="translate(4112.2 8923.1) scale(3.9 -3.9)" gradientUnits="userSpaceOnUse">
      <stop offset="0" stop-color="#0c8acb"/>
      <stop offset="1" stop-color="#0a4774"/>
    </radialGradient>
  </defs>
  <rect class="cls-3" y="0" width="283.5" height="283.5" rx="28.3" ry="28.3"/>
  <g class="cls-6">
    <circle class="cls-2" cx="141.7" cy="141.7" r="140.3"/>
    <g id="Yoz">
      <g>
        <path class="cls-4" d="M57.4,94.5c0,4.6-3.8,10.2-8.1,11.8-3.4,1.3-6-.3-6.3-3.9-.4-4.8,4-11.3,8.5-12.6,3.4-1,5.8,1,5.8,4.7h0Z"/>
        <path class="cls-4" d="M66.1,114.7c0,5-3.8,10.7-8,11.8-2.6.7-4.7-.5-5.4-3.1-1.2-4.8,2.4-11.9,7.1-13.7,3.6-1.4,6.3.7,6.3,4.9h0Z"/>
        <path class="cls-4" d="M111.7,120.7c0,5.1-6.4,11.5-11.5,11.4-2.7,0-4.5-2.1-4.2-4.9.6-4.9,5.7-10.1,10.6-10.7,2.9-.4,5,1.4,5,4.2h0Z"/>
        <path class="cls-4" d="M82.2,162c-3.2,0-5.3-2.3-5.2-5.5.2-3.6,1.8-6.4,5-8.2,3.9-2.2,7.5-.2,7.9,4.2.3,3.8-2.9,8.4-6.5,9.4-.5.1-1,.1-1.2.2h0Z"/>
        <path class="cls-4" d="M86.7,187.7c0,3.7-2.4,7.4-5.7,8.7-3.5,1.4-6.8-.6-7.1-4.4-.3-3.6,2-7.5,5.2-9.1,4.1-2,7.6.2,7.6,4.7h0Z"/>
        <path class="cls-4" d="M33,134c0-3.2,1.2-6.1,3.7-8.3,1.2-1.1,2.7-1.9,4.4-1.2,1.7.6,2.4,2.1,2.6,3.8.5,3.9-.6,7.3-3.4,10-1.3,1.2-2.8,2.1-4.7,1.3s-2.4-2.5-2.7-4.3v-1.3h.1Z"/>
      </g>
      <path class="cls-4" d="M223.1,159.1s0,1.9-1.4,4.7c-5.5,10.6-14.3,17-26,19.4-8,1.6-15.7.3-23.4-1.8-18.2-4.9-36-4.1-53,4.5-6.6,3.3-12.5,7.7-16.6,13.9-3.3,4.9-4.8,10.4-6,16.1-1.2,5.8-1.7,11.7-1.3,17.6.2,2.8.3,4.1,1.4,10.6-.8-1.1-1.6-2.2-2.1-2.9-5.2-8-7.9-16.7-7.8-26.2,0-14.7,5.4-27.2,16.1-37.2,6.9-6.4,15.4-9.9,24.6-11.7,12.4-2.3,24.7-1.5,36.9,1.2,7.1,1.6,13.9,4,21,5.6,14.2,3.2,26.3-.7,36-11.7,1-1.1,1.7-2.1,1.7-2.1h-.1Z"/>
      <path class="cls-4" d="M124.1,111.4c4.7-4.6,10.4-9.4,14.7-13,11.6-9.7,24.4-17.6,37.8-24.6,4.9-2.5,10-4.4,15.6-4.5,5.9,0,10.1,2.6,12.4,7.9,2.3,5.2,3.6,10.7,4.3,16.3,1.5,11,1.3,21.9.6,32.9-.2,2.7-.6,5.3-.7,8,0,1.8-.1,3.7.2,5.5.9,4.2,4,6.7,8.3,6.9,6.7.2,12.2-2.6,16.9-6.9,2.8-2.6,5-6,7.1-9.2s1.2-4.1,0-5.9c-1.8-2.7-3.8-5.9-4.5-9.2-1.1-4.9,2.2-9.2,7.4-10.4,2.8-.6,3.4-2.2,1.6-4.5-.6-.7-1.3-1.4-2.1-1.9-8.3-5.7-16.6-11.5-25.1-16.9-4.7-3-7.4-7.1-7.4-12.6,0-10.2-5.2-17.1-13.9-21.7-9.8-5.1-20.4-8-31.3-9.4-19.2-2.4-38-.9-56.7,3.9-.4,0-1.5.5-1.5.5,6.8,5.8,13.7,11.6,15.5,20.8-.7-.4-1.4-.8-2-1.3-6.7-4.3-13.8-7.7-21.8-9-7.3-1.2-14.3-.4-20.9,2.9-3.7,1.9-5.2,5.5-5.6,9.6-.6,7,2.4,12.9,6.5,18.1,3.3,4.1,7.1,7.8,10.8,11.6-2.3.6-4.9.3-7.5-.3-7.9-1.9-14.2-6.5-19.8-12.2-2-2-3.9-4.2-5.9-6.4-12.8,9.4-21.6,22.1-29,35.9h-.4c.3-1.9.5-3.9,1-5.8,2.8-11.1,8.4-20.8,15.5-29.7,4.4-5.5,9.4-10.3,15.3-14.2.7-.4,1.4-.8,2.3-1.4,1.3,7,3.5,14.5,9.2,19,0,0-1.4-2.9-2-3.8-2.1-3.7-3.6-7.6-4.1-11.9-.6-6,1.3-11.2,5-15.9,10.3-6,21.1-7.8,32.5-3.5l2.8,1.4s-.7-1.8-3.4-3.5c-3.5-2.2-7.2-3.9-11.3-5.4.3-.2.8-.5,1.4-.8,6.1-3,12.5-4.9,19.1-6.3,11.5-2.5,23.3-3.7,35-3.5,15.8.3,31.2,2.4,45.6,9.1,5.9,2.7,11.4,6.1,16.1,10.6,4.1,3.9,6,8.9,7.4,14.2.9,3.6,1.6,7.2,2.4,10.8,1,4.2,3.3,7.4,6.9,9.9,9.1,6.3,18,12.9,27.1,19.1,3.9,2.7,4.7,6,3.7,10.3-1.6,6.5-5.2,12-9.5,17-.4.5-.7,1-.9,1.6-2.6,7.4-5.9,14.4-11.4,20.2-6.6,7-14.9,10.5-24.3,11.9-6.5.9-13,1.4-19.5-2.3-3.9-2.2-6.7-7.6-6.2-12s4.1-11.7,6.6-17.3c1.6-3.7,3.4-7.3,5-11,1.3-2.8,2-5.8,1.7-8.9-.7-7.6-5.7-11.4-12.4-13.4-6.3-1.9-12.8-1.6-19.2-.5-13,2.1-25,7.2-36.6,13.3l-4.4,2.2v-.4Z"/>
      <path class="cls-4" d="M160.5,58.3c-36.2,8.8-65.1,28.8-86.4,59.1-16.9,24-23.9,50.9-20.9,80.3,1.6,15.4,6.5,29.9,14.2,43.4,9.7,18.1,30.6,19.8,37.2,20.5-3.9-3.6-9.4-9-12.9-13.1-15.8-19-24-40.8-24.5-65.6-.2-12.5,1.9-24.8,5.7-36.7,3.8-11.6,8.8-22.7,15.8-32.7,6.3-9,13.9-16.7,22.4-23.6,21.2-17.3,45.6-27.4,72.4-32,4-.7,8-1.2,12.4-1.8-10-1.3-24.3-.4-35.4,2.3h0Z"/>
    </g>
  </g>
  <path class="cls-1" d="M141.7,1.4C64.2,1.4,1.4,64.2,1.4,141.7s62.8,140.3,140.3,140.3,140.3-62.8,140.3-140.3S219.2,1.4,141.7,1.4ZM40.4,138.3c-1.3,1.2-2.8,2.1-4.7,1.3s-2.4-2.5-2.7-4.3v-1.3c0-3.2,1.2-6.1,3.7-8.3,1.2-1.1,2.7-1.9,4.4-1.2,1.7.6,2.4,2.1,2.6,3.8.5,3.9-.6,7.3-3.4,10h.1ZM43.1,102.4c-.4-4.8,4-11.3,8.5-12.6,3.4-1,5.8,1,5.8,4.7s-3.8,10.2-8.1,11.8c-3.4,1.3-6-.3-6.3-3.9h.1ZM59.8,109.8c3.6-1.4,6.3.7,6.3,4.9s-3.8,10.7-8,11.8c-2.6.7-4.7-.5-5.4-3.1-1.2-4.8,2.4-11.9,7.1-13.7h0ZM71.2,247.4c-1.3-2.1-2.7-4.4-3.8-6.5-7.7-13.5-12.6-27.9-14.2-43.4-3-29.3,4-56.3,20.9-80.3,21.4-30.3,50.2-50.2,86.4-59.1,11.1-2.7,25.4-3.5,35.4-2.3-4.4.6-8.4,1.1-12.4,1.8-26.8,4.6-51.2,14.7-72.4,32-8.5,6.9-16.2,14.7-22.4,23.6-7,10-12,21.1-15.8,32.7-3.9,11.9-5.9,24.1-5.7,36.7.4,24.7,8.7,46.6,24.5,65.6,3.4,4.2,9,9.6,12.9,13.1-11.8-3.2-23-8-33.3-14h-.1ZM111.7,120.7c0,5.1-6.4,11.5-11.5,11.4-2.7,0-4.5-2.1-4.2-4.9.6-4.9,5.7-10.1,10.6-10.7,2.9-.4,5,1.4,5,4.2h0ZM83.4,161.9c-.5.1-1,.1-1.2.2-3.2,0-5.3-2.3-5.2-5.5.2-3.6,1.8-6.4,5-8.2,3.9-2.2,7.5-.2,7.9,4.2.3,3.8-2.9,8.4-6.5,9.4h0ZM86.7,187.7c0,3.7-2.4,7.4-5.7,8.7-3.5,1.4-6.8-.6-7.1-4.4-.3-3.6,2-7.5,5.2-9.1,4.1-2,7.6.2,7.6,4.7h0ZM221.7,163.7c-5.5,10.6-14.3,17-26,19.4-8,1.6-15.7.3-23.4-1.8-18.2-4.9-36-4.1-53,4.5-6.6,3.3-12.5,7.7-16.6,13.9-3.3,4.9-4.8,10.4-6,16.1-1.2,5.8-1.7,11.7-1.3,17.6.2,2.8.3,4.1,1.4,10.6-.8-1.1-1.6-2.2-2.1-2.9-5.2-8-7.9-16.7-7.8-26.2,0-14.7,5.4-27.2,16.1-37.2,6.9-6.4,15.4-9.9,24.6-11.7,12.4-2.3,24.7-1.5,36.9,1.2,7.1,1.6,13.9,4,21,5.6,14.2,3.2,26.3-.7,36-11.7,1-1.1,1.7-2.1,1.7-2.1,0,0,0,1.9-1.4,4.7h-.1ZM245.7,127.7c-.4.5-.7,1-.9,1.6-2.6,7.4-5.9,14.4-11.4,20.2-6.6,7-14.9,10.5-24.3,11.9-6.5.9-13,1.4-19.5-2.3-3.9-2.2-6.7-7.6-6.2-12,.7-6.2,4.1-11.7,6.6-17.3,1.6-3.7,3.4-7.3,5-11,1.3-2.8,2-5.8,1.7-8.9-.7-7.6-5.7-11.4-12.4-13.4-6.3-1.9-12.8-1.6-19.2-.5-13,2.1-25,7.2-36.6,13.3l-4.4,2.2c4.7-4.6,10.4-9.4,14.7-13,11.6-9.7,24.4-17.6,37.8-24.6,4.9-2.5,10-4.4,15.6-4.5,5.9,0,10.1,2.6,12.4,7.9,2.3,5.2,3.6,10.7,4.3,16.3,1.5,11,1.3,21.9.6,32.9-.2,2.7-.6,5.3-.7,8,0,1.8-.1,3.7.2,5.5.9,4.2,4,6.7,8.3,6.9,6.7.2,12.2-2.6,16.9-6.9,2.8-2.6,5-6,7.1-9.2,1.2-1.8,1.2-4.1,0-5.9-1.8-2.7-3.8-5.9-4.5-9.2-1.1-4.9,2.2-9.2,7.4-10.4,2.8-.6,3.4-2.2,1.6-4.5-.6-.7-1.3-1.4-2.1-1.9-8.3-5.7-16.6-11.5-25.1-16.9-4.7-3-7.4-7.1-7.4-12.6,0-10.2-5.2-17.1-13.9-21.7-9.8-5.1-20.4-8-31.3-9.4-19.2-2.4-38-.9-56.7,3.9-.4,0-1.5.5-1.5.5,6.8,5.8,13.7,11.6,15.5,20.8-.7-.4-1.4-.8-2-1.3-6.7-4.3-13.8-7.7-21.8-9-7.3-1.2-14.3-.4-20.9,2.9-3.7,1.9-5.2,5.5-5.6,9.6-.6,7,2.4,12.9,6.5,18.1,3.3,4.1,7.1,7.8,10.8,11.6-2.3.6-4.9.3-7.5-.3-7.9-1.9-14.2-6.5-19.8-12.2-2-2-3.9-4.2-5.9-6.4-12.8,9.4-21.6,22.1-29,35.9h-.4c.3-1.9.5-3.9,1-5.8,2.8-11.1,8.4-20.8,15.5-29.7,4.4-5.5,9.4-10.3,15.3-14.2.7-.4,1.4-.8,2.3-1.4,1.3,7,3.5,14.5,9.2,19,0,0-1.4-2.9-2-3.8-2.1-3.7-3.6-7.6-4.1-11.9-.6-6,1.3-11.2,5-15.9,10.3-6,21.1-7.8,32.5-3.5l2.8,1.4s-.7-1.8-3.4-3.5c-3.5-2.2-7.2-3.9-11.3-5.4.3-.2.8-.5,1.4-.8,6.1-3,12.5-4.9,19.1-6.3,11.5-2.5,23.3-3.7,35-3.5,15.8.3,31.2,2.4,45.6,9.1,5.9,2.7,11.4,6.1,16.1,10.6,4.1,3.9,6,8.9,7.4,14.2.9,3.6,1.6,7.2,2.4,10.8,1,4.2,3.3,7.4,6.9,9.9,9.1,6.3,18,12.9,27.1,19.1,3.9,2.7,4.7,6,3.7,10.3-1.6,6.5-5.2,12-9.5,17v-.4Z"/>
  <g id="Yoz-2">
    <g>
      <path class="cls-5" d="M57.2,91.8c0,4.6-3.8,10.2-8.1,11.8-3.4,1.3-6-.3-6.3-3.9-.4-4.8,4-11.3,8.5-12.6,3.4-1,5.8,1,5.8,4.7h.1Z"/>
      <path class="cls-5" d="M65.9,112.1c0,5-3.8,10.7-8,11.8-2.6.7-4.7-.5-5.4-3.1-1.2-4.8,2.4-11.9,7.1-13.7,3.6-1.4,6.3.7,6.3,4.9h0Z"/>
      <path class="cls-5" d="M111.6,118.1c0,5.1-6.4,11.5-11.5,11.4-2.7,0-4.5-2.1-4.2-4.9.6-4.9,5.7-10.1,10.6-10.7,2.9-.4,5,1.4,5,4.2h.1Z"/>
      <path class="cls-5" d="M82,159.5c-3.2,0-5.3-2.3-5.2-5.5.2-3.6,1.8-6.4,5-8.2,3.9-2.2,7.5-.2,7.9,4.2.3,3.8-2.9,8.4-6.5,9.4-.5.1-1,.1-1.2.2h0Z"/>
      <path class="cls-5" d="M86.6,185.3c0,3.7-2.4,7.4-5.7,8.7-3.5,1.4-6.8-.6-7.1-4.4-.3-3.6,2-7.5,5.2-9.1,4.1-2,7.6.2,7.6,4.7h0Z"/>
      <path class="cls-5" d="M32.7,131.4c.1-3.2,1.2-6.1,3.7-8.3,1.2-1.1,2.7-1.9,4.4-1.2,1.7.6,2.4,2.1,2.6,3.8.5,3.9-.6,7.3-3.4,10-1.3,1.2-2.8,2.1-4.7,1.3s-2.4-2.5-2.7-4.3v-1.3h.1Z"/>
    </g>
    <path class="cls-5" d="M223.3,156.6s0,1.9-1.4,4.7c-5.5,10.6-14.3,17-26.1,19.5-8,1.6-15.7.3-23.5-1.8-18.2-4.9-36.1-4.1-53.1,4.5-6.6,3.3-12.5,7.7-16.6,13.9-3.3,4.9-4.8,10.4-6,16.1-1.2,5.8-1.7,11.7-1.3,17.6.2,2.8.3,4.1,1.4,10.6-.8-1.1-1.6-2.2-2.1-2.9-5.2-8-7.9-16.7-7.8-26.3.1-14.7,5.4-27.3,16.1-37.3,6.9-6.4,15.4-9.9,24.7-11.7,12.4-2.3,24.8-1.5,37,1.2,7.1,1.6,13.9,4,21.1,5.6,14.2,3.2,26.4-.7,36.1-11.7,1-1.1,1.7-2.1,1.7-2.1h-.1Z"/>
    <path class="cls-5" d="M124.1,108.8c4.7-4.6,10.4-9.4,14.7-13,11.6-9.7,24.5-17.6,37.9-24.7,4.9-2.5,10-4.4,15.6-4.5,5.9-.1,10.1,2.6,12.4,7.9,2.3,5.2,3.6,10.7,4.3,16.3,1.5,11,1.3,22,.6,33-.2,2.7-.6,5.3-.7,8,0,1.8-.1,3.7.2,5.5.9,4.2,4,6.7,8.3,6.9,6.7.2,12.2-2.6,16.9-6.9,2.8-2.6,5-6,7.1-9.2s1.2-4.1,0-5.9c-1.8-2.7-3.8-5.9-4.5-9.2-1.1-4.9,2.2-9.2,7.4-10.4,2.8-.6,3.4-2.2,1.6-4.5-.6-.7-1.3-1.4-2.1-1.9-8.3-5.7-16.6-11.5-25.2-16.9-4.7-3-7.4-7.1-7.4-12.6,0-10.2-5.2-17.1-13.9-21.8-9.8-5.1-20.5-8-31.4-9.4-19.3-2.4-38.1-.9-56.9,3.9-.4.1-1.5.5-1.5.5,6.8,5.8,13.7,11.6,15.5,20.9-.7-.4-1.4-.8-2-1.3-6.7-4.3-13.8-7.7-21.9-9-7.3-1.2-14.3-.4-21,2.9-3.7,1.9-5.2,5.5-5.6,9.6-.6,7,2.4,12.9,6.5,18.1,3.3,4.1,7.1,7.8,10.8,11.6-2.3.6-4.9.3-7.5-.3-7.9-1.9-14.2-6.5-19.9-12.2-2-2-3.9-4.2-5.9-6.4-12.8,9.4-21.7,22.2-29.1,36h-.4c.3-1.9.5-3.9,1-5.8,2.8-11.1,8.4-20.9,15.5-29.8,4.4-5.5,9.4-10.3,15.3-14.2.7-.4,1.4-.8,2.3-1.4,1.3,7,3.5,14.5,9.2,19.1,0,0-1.4-2.9-2-3.8-2.1-3.7-3.6-7.6-4.1-11.9-.6-6,1.3-11.2,5-15.9,10.3-6,21.2-7.8,32.6-3.5l2.8,1.4s-.7-1.8-3.4-3.5c-3.5-2.2-7.2-3.9-11.3-5.4.3-.2.8-.5,1.4-.8,6.1-3,12.5-4.9,19.2-6.3,11.5-2.5,23.4-3.7,35.1-3.5,15.8.3,31.3,2.4,45.7,9.1,5.9,2.7,11.4,6.1,16.1,10.6,4.1,3.9,6,8.9,7.4,14.2.9,3.6,1.6,7.2,2.4,10.8,1,4.2,3.3,7.4,6.9,9.9,9.1,6.3,18,12.9,27.2,19.2,3.9,2.7,4.7,6,3.7,10.3-1.6,6.5-5.2,12-9.5,17-.4.5-.7,1-.9,1.6-2.6,7.4-5.9,14.4-11.4,20.3-6.6,7-14.9,10.5-24.4,11.9-6.5.9-13,1.4-19.6-2.3-3.9-2.2-6.7-7.6-6.2-12,.7-6.2,4.1-11.7,6.6-17.3,1.6-3.7,3.4-7.3,5-11,1.3-2.8,2-5.8,1.7-8.9-.7-7.6-5.7-11.4-12.4-13.4-6.3-1.9-12.8-1.6-19.3-.5-13,2.1-25.1,7.2-36.7,13.3l-4.4,2.2v-.4Z"/>
    <path class="cls-5" d="M160.6,55.5c-36.3,8.8-65.3,28.9-86.6,59.3-16.9,24.1-24,51-21,80.5,1.6,15.4,6.5,30,14.2,43.5,9.7,18.1,30.7,19.9,37.3,20.6-3.9-3.6-9.4-9-12.9-13.1-15.8-19.1-24.1-40.9-24.6-65.8-.2-12.5,1.9-24.9,5.7-36.8,3.8-11.6,8.8-22.8,15.8-32.8,6.3-9,13.9-16.7,22.5-23.7,21.3-17.3,45.7-27.5,72.6-32.1,4-.7,8-1.2,12.4-1.8-10-1.3-24.4-.4-35.5,2.3h0Z"/>
  </g>
</svg>