<?xml version="1.0" encoding="UTF-8"?>
<svg id="Layer_1" data-name="Layer 1" xmlns="http://www.w3.org/2000/svg" xmlns:xlink="http://www.w3.org/1999/xlink" viewBox="0 0 99 99">
  <defs>
    <style>
      .cls-1 {
        fill: url(#radial-gradient);
      }

      .cls-1, .cls-2 {
        stroke-width: 0px;
      }

      .cls-2 {
        fill: #fff;
      }
    </style>
    <radialGradient id="radial-gradient" cx="49.42" cy="49.42" fx="49.42" fy="49.42" r="149.88" gradientTransform="translate(29.25 29.25) scale(.41)" gradientUnits="userSpaceOnUse">
      <stop offset="0" stop-color="#5abf90"/>
      <stop offset="1" stop-color="#08a775"/>
    </radialGradient>
  </defs>
  <circle class="cls-1" cx="49.5" cy="49.5" r="49.5"/>
  <g id="Yoz">
    <g>
      <path class="cls-2" d="M19.76,32.83c0,1.63-1.36,3.59-2.85,4.15-1.19.44-2.1-.12-2.22-1.36-.15-1.68,1.41-3.98,3.02-4.45,1.2-.35,2.06.34,2.05,1.67Z"/>
      <path class="cls-2" d="M22.81,39.97c0,1.78-1.34,3.76-2.83,4.17-.91.25-1.65-.19-1.89-1.09-.44-1.7.85-4.19,2.5-4.82,1.28-.49,2.22.24,2.22,1.75Z"/>
      <path class="cls-2" d="M38.92,42.07c.01,1.81-2.24,4.05-4.05,4.02-.97-.02-1.59-.75-1.47-1.73.22-1.72,2.02-3.55,3.74-3.77,1.01-.13,1.77.5,1.78,1.48Z"/>
      <path class="cls-2" d="M28.5,56.66c-1.14,0-1.88-.8-1.82-1.95.07-1.26.64-2.27,1.75-2.9,1.36-.77,2.66-.07,2.8,1.49.12,1.32-1.01,2.96-2.3,3.3-.17.05-.35.05-.43.06Z"/>
      <path class="cls-2" d="M30.08,65.71c0,1.3-.86,2.6-2.02,3.07-1.24.5-2.39-.22-2.5-1.54-.1-1.26.69-2.64,1.82-3.2,1.44-.71,2.7.07,2.7,1.67Z"/>
      <path class="cls-2" d="M11.15,46.78c.04-1.13.43-2.15,1.32-2.94.44-.39.94-.66,1.56-.42.61.23.85.74.93,1.33.19,1.37-.21,2.57-1.2,3.54-.44.43-.98.75-1.65.47-.67-.28-.86-.86-.94-1.52-.02-.14-.01-.27-.02-.46Z"/>
    </g>
    <path class="cls-2" d="M78.21,55.62s0,.68-.49,1.64c-1.95,3.75-5.04,6.01-9.16,6.85-2.81.57-5.54.1-8.27-.64-6.42-1.74-12.7-1.44-18.71,1.6-2.32,1.18-4.39,2.7-5.87,4.91-1.15,1.72-1.7,3.68-2.12,5.68-.43,2.05-.61,4.13-.47,6.22.07,1,.11,1.43.48,3.73-.3-.4-.55-.76-.72-1.02-1.82-2.81-2.79-5.89-2.76-9.24.05-5.17,1.89-9.6,5.69-13.13,2.45-2.28,5.43-3.5,8.68-4.11,4.37-.83,8.71-.51,13.01.43,2.49.55,4.91,1.41,7.39,1.97,5.02,1.12,9.29-.23,12.7-4.13.35-.37.62-.75.62-.75Z"/>
    <path class="cls-2" d="M43.29,38.8c1.66-1.64,3.66-3.32,5.18-4.59,4.1-3.41,8.62-6.2,13.33-8.67,1.71-.9,3.52-1.57,5.5-1.6,2.07-.04,3.55.9,4.38,2.79.8,1.83,1.25,3.76,1.52,5.73.51,3.86.45,7.74.22,11.62-.05.94-.21,1.88-.26,2.82-.03.64-.04,1.31.09,1.93.3,1.48,1.41,2.36,2.93,2.42,2.35.09,4.3-.92,5.95-2.44.99-.91,1.76-2.12,2.51-3.24.42-.63.43-1.45,0-2.09-.64-.95-1.33-2.07-1.59-3.24-.38-1.72.79-3.25,2.62-3.66,1-.23,1.2-.77.55-1.58-.2-.26-.45-.5-.73-.69-2.94-2-5.86-4.04-8.86-5.96-1.67-1.07-2.6-2.49-2.62-4.46-.04-3.59-1.82-6.05-4.91-7.66-3.47-1.81-7.18-2.83-11.06-3.32-6.76-.85-13.4-.31-19.99,1.37-.15.04-.54.17-.54.17,2.4,2.03,4.82,4.08,5.48,7.35-.24-.15-.48-.29-.71-.44-2.37-1.52-4.87-2.72-7.68-3.17-2.56-.41-5.05-.14-7.36,1.02-1.3.65-1.84,1.95-1.96,3.37-.21,2.47.84,4.54,2.3,6.37,1.15,1.45,2.52,2.74,3.79,4.09-.81.21-1.72.12-2.63-.1-2.79-.68-5-2.3-6.97-4.29-.71-.71-1.36-1.47-2.1-2.27-4.52,3.31-7.61,7.81-10.24,12.67-.05,0-.1-.02-.15-.03.11-.69.17-1.38.34-2.06.98-3.93,2.96-7.34,5.46-10.48,1.54-1.94,3.31-3.64,5.39-5.01.24-.16.49-.3.8-.48.45,2.48,1.22,5.11,3.25,6.72,0,0-.5-1.01-.69-1.36-.73-1.32-1.27-2.7-1.44-4.21-.23-2.12.46-3.96,1.77-5.61,3.65-2.13,7.45-2.75,11.45-1.22.16.06,1,.48,1,.48,0,0-.25-.63-1.2-1.23-1.24-.79-2.54-1.39-4-1.92.11-.06.28-.19.48-.29,2.14-1.07,4.42-1.72,6.74-2.22,4.06-.87,8.2-1.3,12.35-1.23,5.56.1,11,.86,16.1,3.19,2.09.96,4.02,2.16,5.69,3.75,1.43,1.36,2.13,3.14,2.61,5,.32,1.25.55,2.53.84,3.8.34,1.48,1.15,2.62,2.42,3.5,3.2,2.22,6.34,4.54,9.54,6.75,1.36.94,1.67,2.13,1.3,3.64-.56,2.31-1.83,4.22-3.35,6-.15.17-.26.37-.33.58-.91,2.62-2.08,5.09-4.01,7.12-2.34,2.46-5.27,3.71-8.57,4.19-2.28.33-4.57.51-6.89-.81-1.36-.78-2.36-2.67-2.17-4.23.26-2.2,1.43-4.11,2.33-6.11.58-1.29,1.18-2.57,1.75-3.86.44-1,.7-2.05.59-3.15-.26-2.67-2-4.03-4.37-4.74-2.23-.67-4.51-.57-6.79-.19-4.59.75-8.81,2.56-12.9,4.7l-1.54.77Z"/>
    <path class="cls-2" d="M56.12,20.07c-12.78,3.11-22.95,10.15-30.49,20.83-5.97,8.45-8.45,17.97-7.37,28.31.57,5.44,2.29,10.54,5,15.3,3.42,6.39,10.79,6.99,13.12,7.24-1.36-1.26-3.33-3.17-4.55-4.64-5.56-6.7-8.48-14.41-8.63-23.13-.07-4.42.66-8.74,2.02-12.94,1.33-4.09,3.1-8,5.57-11.53,2.21-3.16,4.92-5.9,7.91-8.33,7.48-6.09,16.08-9.66,25.54-11.27,1.41-.24,2.83-.42,4.37-.64-3.52-.44-8.57-.15-12.49.81Z"/>
  </g>
</svg>