<?xml version="1.0" encoding="UTF-8"?>
<svg id="CMPLT" xmlns="http://www.w3.org/2000/svg" xmlns:xlink="http://www.w3.org/1999/xlink" viewBox="0 0 3038.7 1201.58">
  <defs>
    <style>
      .cls-1 {
        fill: url(#linear-gradient-12);
      }

      .cls-1, .cls-2, .cls-3, .cls-4, .cls-5, .cls-6, .cls-7, .cls-8, .cls-9, .cls-10, .cls-11, .cls-12, .cls-13, .cls-14, .cls-15, .cls-16, .cls-17, .cls-18, .cls-19, .cls-20, .cls-21, .cls-22, .cls-23, .cls-24, .cls-25, .cls-26, .cls-27, .cls-28 {
        stroke-width: 0px;
      }

      .cls-2 {
        fill: url(#linear-gradient-17);
      }

      .cls-3 {
        fill: url(#linear-gradient-19);
      }

      .cls-4 {
        fill: url(#linear-gradient);
      }

      .cls-5 {
        fill: url(#linear-gradient-21);
      }

      .cls-6 {
        fill: url(#linear-gradient-6);
      }

      .cls-7 {
        fill: url(#linear-gradient-15);
      }

      .cls-8 {
        fill: url(#linear-gradient-11);
      }

      .cls-9 {
        fill: url(#linear-gradient-5);
      }

      .cls-10 {
        fill: url(#linear-gradient-13);
      }

      .cls-11 {
        fill: url(#linear-gradient-23);
      }

      .cls-12 {
        fill: url(#linear-gradient-25);
      }

      .cls-13 {
        fill: url(#linear-gradient-16);
      }

      .cls-14 {
        fill: url(#linear-gradient-22);
      }

      .cls-15 {
        fill: url(#linear-gradient-20);
      }

      .cls-16 {
        fill: url(#linear-gradient-14);
      }

      .cls-17 {
        fill: url(#linear-gradient-2);
      }

      .cls-18 {
        fill: url(#linear-gradient-7);
      }

      .cls-19 {
        fill: url(#linear-gradient-3);
      }

      .cls-20 {
        fill: url(#linear-gradient-9);
      }

      .cls-21 {
        fill: url(#linear-gradient-27);
      }

      .cls-22 {
        fill: url(#linear-gradient-8);
      }

      .cls-23 {
        fill: url(#linear-gradient-24);
      }

      .cls-24 {
        fill: url(#linear-gradient-26);
      }

      .cls-25 {
        fill: url(#linear-gradient-18);
      }

      .cls-26 {
        fill: url(#linear-gradient-28);
      }

      .cls-27 {
        fill: url(#linear-gradient-10);
      }

      .cls-28 {
        fill: url(#linear-gradient-4);
      }
    </style>
    <linearGradient id="linear-gradient" x1="55.21" y1="259.91" x2="107.59" y2="259.91" gradientUnits="userSpaceOnUse">
      <stop offset="0" stop-color="#2eb990"/>
      <stop offset="1" stop-color="#028061"/>
    </linearGradient>
    <linearGradient id="linear-gradient-2" x1="89.53" y1="332.54" x2="139.11" y2="332.54" xlink:href="#linear-gradient"/>
    <linearGradient id="linear-gradient-3" x1="248.11" y1="355.18" x2="305.2" y2="355.18" xlink:href="#linear-gradient"/>
    <linearGradient id="linear-gradient-4" x1="178.89" y1="465.97" x2="225.96" y2="465.97" xlink:href="#linear-gradient"/>
    <linearGradient id="linear-gradient-5" x1="167.33" y1="592.49" x2="214.03" y2="592.49" xlink:href="#linear-gradient"/>
    <linearGradient id="linear-gradient-6" x1="18.79" y1="383.63" x2="58.57" y2="383.63" xlink:href="#linear-gradient"/>
    <linearGradient id="linear-gradient-7" x1="214.48" y1="636.4" x2="710.36" y2="636.4" xlink:href="#linear-gradient"/>
    <linearGradient id="linear-gradient-8" x1="0" y1="246.3" x2="828.6" y2="246.3" xlink:href="#linear-gradient"/>
    <linearGradient id="linear-gradient-9" x1="89.53" y1="583.37" x2="1623.12" y2="583.37" xlink:href="#linear-gradient"/>
    <linearGradient id="linear-gradient-10" x1="2404.79" y1="554.64" x2="2794.51" y2="554.64" xlink:href="#linear-gradient"/>
    <linearGradient id="linear-gradient-11" x1="1712.19" y1="858.24" x2="1914.13" y2="858.24" xlink:href="#linear-gradient"/>
    <linearGradient id="linear-gradient-12" x1="1764.41" y1="554.64" x2="2368.25" y2="554.64" xlink:href="#linear-gradient"/>
    <linearGradient id="linear-gradient-13" x1="1334.85" y1="554.64" x2="1739.43" y2="554.64" xlink:href="#linear-gradient"/>
    <linearGradient id="linear-gradient-14" x1="1311.06" y1="768.71" x2="1384.19" y2="768.71" xlink:href="#linear-gradient"/>
    <linearGradient id="linear-gradient-15" x1="650.47" y1="541.47" x2="1264.01" y2="541.47" xlink:href="#linear-gradient"/>
    <linearGradient id="linear-gradient-16" x1="1387.58" y1="1002.28" x2="1447.2" y2="1002.28" xlink:href="#linear-gradient"/>
    <linearGradient id="linear-gradient-17" x1="1473.69" y1="1002.28" x2="1491.43" y2="1002.28" xlink:href="#linear-gradient"/>
    <linearGradient id="linear-gradient-18" x1="1526.25" y1="1002.28" x2="1585.98" y2="1002.28" xlink:href="#linear-gradient"/>
    <linearGradient id="linear-gradient-19" x1="1614.7" y1="1002.28" x2="1675.61" y2="1002.28" xlink:href="#linear-gradient"/>
    <linearGradient id="linear-gradient-20" x1="1758.3" y1="1002.28" x2="1776.04" y2="1002.28" xlink:href="#linear-gradient"/>
    <linearGradient id="linear-gradient-21" x1="1810.86" y1="1002.28" x2="1885.84" y2="1002.28" xlink:href="#linear-gradient"/>
    <linearGradient id="linear-gradient-22" x1="1916.01" y1="1002.28" x2="1986.03" y2="1002.28" xlink:href="#linear-gradient"/>
    <linearGradient id="linear-gradient-23" x1="2015.45" y1="1002.74" x2="2089.85" y2="1002.74" xlink:href="#linear-gradient"/>
    <linearGradient id="linear-gradient-24" x1="2124.21" y1="1002.28" x2="2197.89" y2="1002.28" xlink:href="#linear-gradient"/>
    <linearGradient id="linear-gradient-25" x1="2220.41" y1="1002.28" x2="2310.41" y2="1002.28" xlink:href="#linear-gradient"/>
    <linearGradient id="linear-gradient-26" x1="2337.84" y1="1002.28" x2="2412.83" y2="1002.28" xlink:href="#linear-gradient"/>
    <linearGradient id="linear-gradient-27" x1="2444.48" y1="1002.28" x2="2519.55" y2="1002.28" xlink:href="#linear-gradient"/>
    <linearGradient id="linear-gradient-28" x1="2550.06" y1="1002.28" x2="2610.97" y2="1002.28" xlink:href="#linear-gradient"/>
  </defs>
  <path class="cls-4" d="M107.59,246.81c.03-13.65-8.79-20.81-21.19-17.19-16.55,4.83-32.64,28.58-31.09,45.9,1.14,12.84,10.56,18.64,22.85,14.07,15.44-5.74,29.4-26.03,29.44-42.79Z"/>
  <path class="cls-17" d="M116.19,302.47c-16.98,6.56-30.28,32.2-25.78,49.73,2.41,9.37,10.1,13.83,19.46,11.28,15.36-4.19,29.27-24.65,29.22-43.01-.04-15.48-9.72-23.09-22.91-18Z"/>
  <path class="cls-19" d="M305.2,342.14c-.07-10.12-7.87-16.61-18.32-15.23-17.74,2.34-36.4,21.14-38.62,38.92-1.26,10.07,5.19,17.64,15.15,17.8,18.66.29,41.91-22.8,41.78-41.49Z"/>
  <path class="cls-28" d="M225.87,457.93c-1.45-16.08-14.79-23.3-28.87-15.34-11.5,6.5-17.36,16.9-18.07,29.86-.65,11.92,7.06,20.2,18.78,20.14.85-.11,2.71-.14,4.45-.61,13.26-3.57,24.93-20.4,23.7-34.06Z"/>
  <path class="cls-9" d="M186.21,568.59c-11.68,5.8-19.79,20.03-18.8,32.99,1.04,13.64,12.98,21.02,25.73,15.89,12.01-4.83,20.87-18.27,20.88-31.65,0-16.52-13.01-24.58-27.81-17.23Z"/>
  <path class="cls-6" d="M48.47,356.03c-6.35-2.39-11.57.36-16.09,4.38-9.13,8.14-13.19,18.66-13.59,30.29.09,1.88.07,3.3.23,4.71.77,6.72,2.77,12.77,9.66,15.63,6.87,2.85,12.43-.41,17.02-4.87,10.24-9.95,14.37-22.3,12.38-36.46-.85-6.05-3.36-11.33-9.61-13.68Z"/>
  <path class="cls-18" d="M272.15,629.91c15.2-22.76,36.55-38.49,60.51-50.61,61.99-31.36,126.72-34.45,192.92-16.55,28.15,7.61,56.3,12.52,85.26,6.6,42.47-8.69,74.35-31.97,94.49-70.62,5.03-9.98,5.03-16.96,5.03-16.96,0,0-2.77,3.86-6.35,7.72-35.23,40.13-79.29,54.09-131.01,42.55-25.64-5.72-50.57-14.62-76.22-20.27-44.31-9.75-89.11-12.98-134.14-4.46-33.51,6.33-64.26,18.94-89.48,42.4-39.2,36.47-58.18,82.12-58.67,135.43-.31,34.6,9.7,66.33,28.46,95.33,1.76,2.72,4.39,6.39,7.46,10.56-3.8-23.68-4.2-28.15-4.93-38.43-1.54-21.56.39-42.94,4.8-64.11,4.3-20.65,10-40.79,21.87-58.57Z"/>
  <path class="cls-22" d="M107.11,180.32c7.6,8.27,14.36,16.11,21.63,23.43,20.38,20.53,43.16,37.29,71.9,44.29,9.38,2.28,18.79,3.19,27.14,1.05-13.12-14-27.25-27.21-39.13-42.21-15.02-18.96-25.83-40.31-23.69-65.73,1.23-14.64,6.83-28.03,20.23-34.78,23.82-12,49.49-14.73,75.88-10.53,29,4.63,54.77,17,79.18,32.68,2.43,1.56,4.9,3.04,7.35,4.56-6.89-33.69-31.85-54.88-56.55-75.81,0,0,4.04-1.36,5.55-1.73,67.89-17.36,136.35-22.9,206.1-14.14,39.93,5.01,78.21,15.59,114.01,34.23,31.87,16.6,50.25,41.93,50.62,78.97.2,20.27,9.7,34.89,26.97,45.97,30.62,19.65,60.48,40.5,90.57,60.98,2.91,1.98,5.57,4.33,7.81,7.05,7.13,8.68,5.21,14.46-5.29,16.85-18.92,4.32-30.97,20.02-27.05,37.79,2.64,11.99,9.79,23.57,16.36,33.38,4.35,6.5,4.37,14.98,0,21.47-7.77,11.57-15.61,23.99-25.89,33.43-17.1,15.71-37.15,26.1-61.41,25.21-15.72-.57-27.15-9.64-30.25-24.95-1.3-6.45-1.22-13.3-.89-19.93.49-9.72,2.09-19.38,2.65-29.1,2.31-39.99,2.99-79.97-2.32-119.8-2.71-20.35-7.41-40.28-15.64-59.13-8.5-19.48-23.8-29.21-45.15-28.8-20.35.39-39.04,7.28-56.7,16.53-48.62,25.47-95.22,54.22-137.48,89.43-15.71,13.09-36.29,30.5-53.42,47.36l15.84-7.94c42.15-22.12,85.6-40.71,132.98-48.49,23.44-3.85,46.94-4.94,69.98,1.98,24.44,7.34,42.39,21.29,45.11,48.86,1.12,11.37-1.56,22.19-6.11,32.52-5.88,13.35-12.07,26.55-18.07,39.85-9.29,20.61-21.38,40.37-24.06,63.02-1.86,15.75,7.67,34.96,21.34,43.01,24.26,14.29,48.23,12.49,72.12,9,34.05-4.96,64.3-17.87,88.41-43.24,19.91-20.95,31.92-46.39,41.34-73.39.77-2.2,1.94-4.23,3.44-6,15.67-18.43,28.79-38.13,34.58-61.91,3.78-15.53.58-27.85-13.44-37.53-33.06-22.83-65.42-46.67-98.41-69.61-13.04-9.07-21.44-20.75-24.94-36.06-2.97-13.03-5.31-26.21-8.65-39.14-4.97-19.21-12.12-37.59-26.91-51.6-17.23-16.32-37.16-28.78-58.71-38.64C543.43,8.95,487.39,1.09,430.04.08c-42.79-.75-85.54,3.67-127.38,12.66-23.96,5.15-47.45,11.92-69.55,22.93-1.98.99-3.81,2.28-4.91,2.95,15.1,5.46,28.47,11.69,41.26,19.8,9.74,6.17,12.34,12.65,12.34,12.65,0,0-8.67-4.3-10.29-4.91-41.25-15.69-80.4-9.34-118.05,12.63-13.56,17.01-20.64,35.96-18.28,57.85,1.68,15.62,7.31,29.81,14.81,43.41,1.99,3.61,7.1,13.98,7.1,13.98-20.92-16.54-28.83-43.69-33.5-69.25-3.14,1.89-5.74,3.35-8.22,4.98-21.42,14.09-39.64,31.66-55.55,51.64-25.78,32.35-46.25,67.54-56.32,108.07-1.72,6.93-2.35,14.13-3.48,21.21.81.28.6.2,1.41.48,27.16-50.23,59.01-96.61,105.7-130.84Z"/>
  <path class="cls-20" d="M1618.36,781.02c1.54-.37,3.57-2.73,3.69-4.29.67-8.47,1.22-16.99,1.02-25.47-.19-7.75-.78-7.77-8.37-6.22-38.41,7.85-66.95,18.09-103.25,32.57-72.02,28.75-143.68,58.4-215.56,87.52-109.7,44.45-220.87,84.38-336.79,109.78-63.32,13.87-127.28,23.26-192.07,25.9-54.87,2.24-109.57.06-164-8.07-56.7-8.47-112.06-21.94-165.39-43.07-79.71-31.59-150.29-76.58-205.6-143.15-57.38-69.06-87.47-148.56-88.97-238.51-.76-45.62,6.77-90.09,20.87-133.4,13.74-42.21,31.95-82.49,57.41-118.92,22.79-32.61,50.68-60.79,81.56-85.93,77.15-62.84,165.83-99.61,263.36-116.26,14.53-2.48,29.18-4.3,45.06-6.62-36.27-4.57-88.38-1.53-128.8,8.31-131.77,32.07-236.64,104.7-314.45,214.83-61.56,87.15-87.12,185.29-76.03,291.95,5.83,56.14,23.58,108.7,51.58,157.74,37.03,64.85,87.9,116.89,148.59,159.65,33.03,23.27,67.06,45.26,104.95,59.73,105.53,40.3,214.96,61.04,327.93,62.76,43.29.66,86.44-1.94,129.46-6.95,41.72-4.86,82.98-12.19,123.87-21.64,86.87-20.07,171.03-48.58,252.53-84.38,75.65-33.23,150.25-68.86,225.31-103.43,55.55-25.58,102.23-49.91,162.09-64.43Z"/>
  <path class="cls-27" d="M2404.79,203.93v10.87c3.3.32,6.31.63,9.33.91,21.76,2,39.47,16.26,44.72,37.16,2,7.97,2.76,16.45,2.77,24.69.13,176.76.13,353.52-.04,530.29-.01,14.39-.81,28.83-2.29,43.14-2.26,21.85-13.24,35.29-31.21,39.6-4.3,1.03-8.75,1.41-13.34,2.12v12.65h193.06v-12.91c-3.25-.44-6.27-.8-9.28-1.26-17.25-2.66-30-11.38-35.45-28.34-2.63-8.2-4.69-17.01-4.72-25.55-.16-42.65-.12-156.89-.04-275.82,22.4-.08,44.81-.16,67.21-.18,23.35-.02,34.5,8.49,39.13,29.61h8.83v-92.63h-9.14c-1.72,15.77-7.19,22.2-21.03,24.58-4.78.82-9.68,1.27-14.52,1.29-23.48.11-46.96.15-70.44.18.1-121.63.22-240.91.22-286.76,1.85-.09,3.26-.23,4.68-.23,47.95,0,95.9-.08,143.85.07,7.69.02,15.49.34,23.04,1.65,26.54,4.61,47.05,17.09,55.34,44.64h9.05v-79.76h-389.71Z"/>
  <path class="cls-8" d="M1858.41,888.99c-13.91-5-20.99-16.29-20.15-31.38.38-6.8,1.31-13.76,3.39-20.25,2.68-8.36,5.5-16.49,7.54-22.21,1.4-3.95-1.5-8.07-5.69-8.08-10.4-.01-27.76,0-37.84.19-1.51.03-3.68,2.17-4.34,3.81-3.91,9.76-5.08,12.73-9.15,22.41-5.79,13.76-10.3,23.15-17.67,36.05-9.21,16.13-23.78,25.75-42.79,27.46-6.58.59-13.18.89-19.52,1.31v11.1h201.94v-11.4c-7.22-.47-14.19-.34-20.93-1.49-11.7-1.99-23.71-3.55-34.79-7.53Z"/>
  <path class="cls-1" d="M2339.94,905.29c15.87-.04,27.66-.09,28.31-.12v-12.75c-3.03-.36-5.63-.79-8.24-.96-17.09-1.15-29.39-9.95-37.62-24.42-5.49-9.67-10.5-19.67-14.96-29.86-55.64-127.1-106.57-256.13-157.39-385.2-31.68-80.44-65.64-167.55-96.9-248.16h-32.32c-59.78,156.41-122.39,320.93-182.34,477.28-3.98,10.39-3.42,9.67-7.52,20.48-1.2,3.17,1.03,6.64,4.42,6.83,10.59.6,20.75,1.13,30.88,1.97,4.55.38,6.56-.85,8.25-5.36,43.64-116.4,82.98-221.59,126.79-337.93.76-2.01,1.59-3.98,2.83-7.06,8.8,21.87,36.21,89.85,67.67,167.84-24.2,0-48.39,0-72.59.09-2.13,0-5.59.68-6.17,2.02-3.43,7.89-6.19,16.07-9.37,24.66,2.23,0,55.7.07,98.94.01,46.15,114.4,97.25,240.96,110.37,273.3-129.87-55.62-277.25-99.51-417.06-96.93-3.39.06-6.28,2.6-6.81,5.96-1.6,10.1-3.1,19.58-4.58,28.88-.84,5.28,3.48,9.94,8.81,9.54,4.34-.33,8.7-.62,13.06-.67,45.12-.5,109.2,9.3,152.84,20.11,82.78,20.52,159.06,54.87,226.7,107.45,2.16,1.68,6.2,3.09,8.94,3.09,30.64.08,53.6.07,75.86.05l.05.06c1.12,0,46.41-.08,80.42-.16,2.87,0,5.78,0,8.79,0l-.04-.02Z"/>
  <path class="cls-10" d="M1737.01,685.28c-5.67-38.8-24.47-70.91-52.05-98.2-24.92-24.66-54.16-43.26-84.73-59.9-28.83-15.71-58.09-30.64-86.72-46.7-22.35-12.54-43.37-27.13-60.9-46.19-31.19-33.92-39.96-73.99-30.85-118.12,7.96-38.55,30.04-66.39,67.25-81.04,18.45-7.27,37.79-8.86,57.43-7.92,35.82,1.71,65.41,15.82,87.82,44.17,16.87,21.34,26.94,46.04,35.32,71.57,1.65,5.03,3.2,10.09,4.77,15.22,1.89,6.22,8.22,9.98,14.59,8.67,6.44-1.32,12.79-2.63,19.26-3.96.06-1.41.17-2.02.1-2.6-3.59-28.57-7.22-57.13-10.79-85.71-2.29-18.31-4.38-36.65-6.87-54.94-.28-2.04-2.24-4.96-4.04-5.53-51.54-16.42-103.85-27.38-158.48-22.36-36.66,3.37-71.2,13.11-103.03,31.91-67.07,39.6-101.71,116.16-86.85,192.54,8.68,44.6,33.14,79.56,66.99,108.71,26.16,22.53,55.93,39.44,85.9,56.21,30.94,17.31,61.9,34.71,91.82,53.69,22.81,14.47,41.8,33.58,54.35,58.09,15.22,29.73,16.48,61.23,9.89,93.14-7.18,34.75-25.21,62.72-57.68,78.6-41.02,20.06-82.88,20.43-124.73,3.96-3.75-1.48-7.92-1.45-11.58.24l-56.98,26.41c-3.28,1.52-3.08,6.24.31,7.48,2.46.9,4.95,1.77,6.76,2.3,51.33,15.02,103.5,17.69,155.98,8.12,50.12-9.14,94.59-30.19,129.56-68.22,41.68-45.32,57.03-99.02,48.17-159.65Z"/>
  <path class="cls-16" d="M1327.96,823.89c.7,4.34,5.28,6.91,9.35,5.25,14.46-5.87,28.45-11.55,42.64-17.31,4.02-1.63,5.46-6.52,3.08-10.15-18.3-27.87-30.64-57.79-39.71-89.25-.96-3.31-4.33-5.29-7.68-4.48-6.58,1.6-13,3.17-19.65,4.79-3.26.79-5.38,3.97-4.84,7.28,5.62,34.7,11.18,69.06,16.81,103.86Z"/>
  <path class="cls-7" d="M712.68,852.57c-10.3,16.43-25.23,26.02-45.03,27.14-5.76.32-11.6.37-17.18.77v11.11h202.1v-11.11c-5.65-.37-10.95-.34-16.12-1.12-11.98-1.79-24.34-2.61-35.76-6.28-17.74-5.7-27.83-24.44-23.15-42.47,5.8-22.36,12.59-44.55,20.5-66.24,45.26-124.2,90.97-248.23,136.57-372.31,5.46-14.86,17.25-45.9,17.25-45.9l.08-.26,67.65,168.84c-26.89,0-53.78-.02-80.67.09-2.13,0-5.59.68-6.17,2.02-3.43,7.89-6.19,16.07-9.37,24.66,2.37,0,62.61.07,106.94,0l109.4,273.03c4.83,11.9,8.38,24.08,7.73,37.19-.67,13.46-8.53,25.05-21.19,28.67-2.71.78-5.55.82-5.55.82l-.45,11.15h48.93c8.73.04,17.36-1.8,25.32-5.39l61.27-27.63c6.86-3.1,10.05-11.07,7.2-18.04L997.2,190.69l-28.24-.1c-15.47,40.98-31.11,79.12-46.72,120.05-65.48,171.77-130.86,343.57-196.45,515.3-3.52,9.21-7.88,18.28-13.11,26.63Z"/>
  <path class="cls-13" d="M1443.02,1031.04h-37.53c-.1,0-.17-.08-.17-.17v-69.33c0-2.31-1.87-4.17-4.17-4.17h-9.39c-2.31,0-4.17,1.87-4.17,4.17v81.49c0,2.31,1.87,4.17,4.17,4.17h51.27c2.31,0,4.17-1.87,4.17-4.17v-7.81c0-2.31-1.87-4.17-4.17-4.17Z"/>
  <rect class="cls-2" x="1473.69" y="957.36" width="17.74" height="89.84" rx="4.17" ry="4.17"/>
  <path class="cls-25" d="M1581.81,957.36h-51.39c-2.31,0-4.17,1.87-4.17,4.17v81.49c0,2.31,1.87,4.17,4.17,4.17h9.27c2.31,0,4.17-1.87,4.17-4.17v-33.24c0-.1.08-.17.17-.17h35.42c2.31,0,4.17-1.87,4.17-4.17v-7.58c0-2.31-1.87-4.17-4.17-4.17h-35.42c-.1,0-.17-.08-.17-.17v-19.94c0-.1.08-.17.17-.17l37.78-.1c2.3,0,4.16-1.87,4.16-4.17v-7.58c0-2.31-1.87-4.17-4.17-4.17Z"/>
  <path class="cls-3" d="M1671.44,957.36h-52.56c-2.31,0-4.17,1.87-4.17,4.17v81.49c0,2.31,1.87,4.17,4.17,4.17h52.56c2.31,0,4.17-1.87,4.17-4.17v-7.58c0-2.31-1.87-4.17-4.17-4.17h-38.94c-.1,0-.17-.08-.17-.17v-21.19c0-.1.08-.17.17-.17h36.48c2.31,0,4.17-1.87,4.17-4.17v-7.7c0-2.31-1.87-4.17-4.17-4.17h-36.48c-.1,0-.17-.08-.17-.17v-20.04c0-.1.08-.17.17-.17h38.94c2.31,0,4.17-1.87,4.17-4.17v-7.58c0-2.31-1.87-4.17-4.17-4.17Z"/>
  <rect class="cls-15" x="1758.3" y="957.36" width="17.74" height="89.84" rx="4.17" ry="4.17"/>
  <path class="cls-5" d="M1881.67,957.36h-8.8c-2.31,0-4.17,1.87-4.17,4.17v53.15c0,.17-.21.24-.31.11l-42.84-55.87c-.76-.99-1.93-1.57-3.17-1.57h-7.33c-2.31,0-4.17,1.87-4.17,4.17v81.49c0,2.31,1.87,4.17,4.17,4.17h8.8c2.31,0,4.17-1.87,4.17-4.17v-53.35c0-.17.21-.24.31-.11l42.84,56.06c.76.99,1.93,1.57,3.18,1.57h7.33c2.31,0,4.17-1.87,4.17-4.17v-81.49c0-2.31-1.87-4.17-4.17-4.17Z"/>
  <path class="cls-14" d="M1974.6,1001.9c-4.21-2.35-11.69-4.74-22.86-7.3-3.99-.94-7.35-1.96-9.96-3.03-2.2-.9-3.85-1.99-4.91-3.24-.06-.08-.13-.15-.2-.22-.97-.99-1.44-2.41-1.44-4.33,0-3.49,1.24-6.03,3.89-7.99,2.96-2.19,7.29-3.3,12.87-3.3,4.18,0,8.14.7,11.77,2.09,3.65,1.4,7.26,3.62,10.73,6.6.73.63,1.66.97,2.61.97.79,0,1.59-.23,2.35-.75.56-.38.97-.94,1.27-1.54l3.54-7.04c.78-1.56.54-3.47-.68-4.72-4.98-5.13-11.64-8.66-19.79-10.51-.04,0-.08-.02-.12-.02-3.75-.74-7.68-1.11-11.68-1.11-6.69,0-12.65,1.09-17.7,3.25-5.26,2.25-9.41,5.52-12.33,9.73-2.96,4.27-4.47,9.21-4.47,14.7,0,6.4,2.07,11.82,6.15,16.09.03.03.06.06.09.09,2.81,2.76,6.52,5.01,11.02,6.7,4.15,1.55,9.46,3.06,15.78,4.47,4.29.96,7.89,1.94,10.7,2.92,2.43.85,4.28,1.85,5.5,2.99.62.58,1.43,1.62,1.43,3.98,0,3.37-1.2,5.78-3.76,7.6-2.93,2.07-7.34,3.12-13.12,3.12-5.16,0-9.76-.68-13.66-2.02-3.85-1.33-7.66-3.57-11.33-6.68-.73-.62-1.65-.95-2.59-.95-.26,0-.52.02-.77.08-1.2.24-2.22,1-2.78,2.08l-3.69,7.12c-.86,1.66-.53,3.71.86,4.97,5.83,5.27,12.89,8.71,20.98,10.22,3.85.81,8.18,1.22,12.86,1.22,6.83,0,12.86-1.05,17.93-3.11,5.31-2.16,9.49-5.35,12.43-9.49,2.98-4.2,4.49-9.08,4.49-14.5,0-4.43-1.02-8.28-3.03-11.45-1.96-3.09-4.79-5.67-8.41-7.67Z"/>
  <path class="cls-11" d="M2085.68,957.36h-9.39c-2.31,0-4.17,1.87-4.17,4.17v50.4c0,6.85-1.61,11.99-4.79,15.26-3.15,3.24-8.08,4.88-14.67,4.88s-11.64-1.64-14.79-4.88c-3.18-3.27-4.79-8.4-4.79-15.26v-50.4c0-2.31-1.87-4.17-4.17-4.17h-9.27c-2.31,0-4.17,1.87-4.17,4.17v49.6c0,11.94,3.22,21.19,9.57,27.49,6.34,6.3,15.64,9.5,27.63,9.5s21.08-3.21,27.5-9.54c6.43-6.35,9.7-15.58,9.7-27.45v-49.6c0-2.31-1.87-4.17-4.17-4.17Z"/>
  <path class="cls-23" d="M2187.06,1014.03c-1.32-3.31-2.99-6-5-8.04-.08-.08-.06-.2.03-.26,2.44-1.53,4.52-3.39,6.23-5.59,3.4-4.38,5.12-9.77,5.12-16.01,0-8.59-2.92-15.32-8.69-20-5.52-4.48-13.33-6.76-23.23-6.76h-33.14c-2.31,0-4.17,1.87-4.17,4.17v81.49c0,2.31,1.87,4.17,4.17,4.17h9.27c2.31,0,4.17-1.87,4.17-4.17v-31.4c0-.1.08-.17.17-.17h16.59c4.2,0,6.39.71,7.48,1.3,1.34.73,2.51,2.31,3.45,4.63l10.28,27.13c.61,1.62,2.17,2.7,3.9,2.7h10.2c1.71,0,3.28-1.1,3.83-2.82.29-.91.18-1.89-.16-2.78l-10.51-27.58ZM2160.59,995.64h-18.58c-.1,0-.17-.08-.17-.17v-22.11c0-.1.08-.17.17-.17h18.58c5.54,0,9.58.97,12.02,2.88,2.17,1.71,3.22,4.38,3.22,8.18,0,5.64-1.81,11.4-15.24,11.4Z"/>
  <path class="cls-12" d="M2273.22,959.72c-.65-1.44-2.07-2.36-3.65-2.36h-8.33c-1.57,0-3,.92-3.65,2.36l-36.84,81.84c-.72,1.61-.32,3.55,1.11,4.74.76.63,1.75.9,2.73.9h9.78c1.66,0,3.17-.99,3.83-2.51l8.01-18.42c.03-.06.09-.1.16-.1h38.17c.07,0,.13.04.16.1l8.01,18.42c.66,1.52,2.17,2.51,3.83,2.51h9.66c.98,0,1.98-.27,2.73-.9,1.43-1.19,1.83-3.13,1.11-4.74l-36.84-81.84ZM2277.38,1010.24h-23.82c-.13,0-.21-.13-.16-.24l11.91-27.16c.06-.14.26-.14.32,0l11.91,27.16c.05.12-.03.24-.16.24Z"/>
  <path class="cls-24" d="M2408.65,957.36h-8.8c-2.31,0-4.17,1.87-4.17,4.17v53.15c0,.17-.21.24-.31.11l-42.84-55.87c-.76-.99-1.93-1.57-3.17-1.57h-7.33c-2.31,0-4.17,1.87-4.17,4.17v81.49c0,2.31,1.87,4.17,4.17,4.17h8.8c2.31,0,4.17-1.87,4.17-4.17v-53.35c0-.17.21-.24.31-.11l42.84,56.06c.76.99,1.93,1.57,3.18,1.57h7.33c2.31,0,4.17-1.87,4.17-4.17v-81.49c0-2.31-1.87-4.17-4.17-4.17Z"/>
  <path class="cls-21" d="M2487.31,972.6c4.18,0,8.01.66,11.41,1.97,3.44,1.33,7.02,3.56,10.65,6.62.73.62,1.65.94,2.58.94.27,0,.54-.03.8-.08,1.2-.25,2.22-1.03,2.77-2.12l3.58-7.13c.79-1.57.53-3.48-.7-4.74-3.76-3.85-8.4-6.79-13.78-8.74-5.27-1.91-11.09-2.88-17.32-2.88-8.57,0-16.17,1.86-22.57,5.53-6.5,3.72-11.55,9.14-15.01,16.08-3.48,6.82-5.25,14.94-5.25,24.12s1.72,17.27,5.11,24.08c3.46,6.96,8.53,12.43,15.06,16.27,6.38,3.72,14,5.6,22.66,5.6,6.22,0,12.05-.97,17.32-2.88,5.38-1.95,10.01-4.89,13.78-8.74,1.23-1.25,1.48-3.17.7-4.74l-3.58-7.13c-.55-1.1-1.57-1.88-2.77-2.12-.27-.05-.54-.08-.8-.08-.94,0-1.85.33-2.58.95-3.63,3.07-7.21,5.29-10.65,6.62-3.39,1.31-7.23,1.97-11.41,1.97-8,0-13.95-2.42-18.19-7.39-4.35-5.09-6.55-12.63-6.55-22.4s2.2-17.17,6.54-22.22c4.25-4.94,10.2-7.34,18.2-7.34Z"/>
  <path class="cls-26" d="M2606.8,957.36h-52.56c-2.31,0-4.17,1.87-4.17,4.17v81.49c0,2.31,1.87,4.17,4.17,4.17h52.56c2.31,0,4.17-1.87,4.17-4.17v-7.58c0-2.31-1.87-4.17-4.17-4.17h-38.94c-.1,0-.17-.08-.17-.17v-21.19c0-.1.08-.17.17-.17h36.48c2.31,0,4.17-1.87,4.17-4.17v-7.7c0-2.31-1.87-4.17-4.17-4.17h-36.48c-.1,0-.17-.08-.17-.17v-20.04c0-.1.08-.17.17-.17h38.94c2.31,0,4.17-1.87,4.17-4.17v-7.58c0-2.31-1.87-4.17-4.17-4.17Z"/>
</svg>