<?xml version="1.0" encoding="UTF-8"?>
<svg id="Layer_1" data-name="Layer 1" xmlns="http://www.w3.org/2000/svg" version="1.1" xmlns:xlink="http://www.w3.org/1999/xlink" viewBox="0 0 283.5 283.5">
  <defs>
    <style>
      .cls-1 {
        fill: none;
      }

      .cls-1, .cls-2, .cls-3 {
        stroke-width: 0px;
      }

      .cls-2 {
        fill: url(#radial-gradient);
      }

      .cls-3 {
        fill: #fff;
      }
    </style>
    <radialGradient id="radial-gradient" cx="141.7" cy="141.7" fx="141.7" fy="141.7" r="74.5" gradientTransform="translate(-406 -406) scale(3.9)" gradientUnits="userSpaceOnUse">
      <stop offset="0" stop-color="#0c8acb"/>
      <stop offset="1" stop-color="#0a4774"/>
    </radialGradient>
  </defs>
  <g>
    <circle class="cls-2" cx="141.7" cy="141.7" r="140.3"/>
    <g id="Yoz">
      <g>
        <path class="cls-3" d="M57.4,94.5c0,4.6-3.8,10.2-8.1,11.8-3.4,1.3-6-.3-6.3-3.9-.4-4.8,4-11.3,8.5-12.6,3.4-1,5.8,1,5.8,4.7Z"/>
        <path class="cls-3" d="M66.1,114.7c0,5-3.8,10.7-8,11.8-2.6.7-4.7-.5-5.4-3.1-1.2-4.8,2.4-11.9,7.1-13.7,3.6-1.4,6.3.7,6.3,4.9Z"/>
        <path class="cls-3" d="M111.7,120.7c0,5.1-6.4,11.5-11.5,11.4-2.7,0-4.5-2.1-4.2-4.9.6-4.9,5.7-10.1,10.6-10.7,2.9-.4,5,1.4,5,4.2Z"/>
        <path class="cls-3" d="M82.2,162c-3.2,0-5.3-2.3-5.2-5.5.2-3.6,1.8-6.4,5-8.2,3.9-2.2,7.5-.2,7.9,4.2.3,3.8-2.9,8.4-6.5,9.4-.5.1-1,.1-1.2.2Z"/>
        <path class="cls-3" d="M86.7,187.7c0,3.7-2.4,7.4-5.7,8.7-3.5,1.4-6.8-.6-7.1-4.4-.3-3.6,2-7.5,5.2-9.1,4.1-2,7.6.2,7.6,4.7Z"/>
        <path class="cls-3" d="M33,134c.1-3.2,1.2-6.1,3.7-8.3,1.2-1.1,2.7-1.9,4.4-1.2,1.7.6,2.4,2.1,2.6,3.8.5,3.9-.6,7.3-3.4,10-1.3,1.2-2.8,2.1-4.7,1.3-1.9-.8-2.4-2.5-2.7-4.3,0-.4,0-.8,0-1.3Z"/>
      </g>
      <path class="cls-3" d="M223.1,159.1s0,1.9-1.4,4.7c-5.5,10.6-14.3,17-26,19.4-8,1.6-15.7.3-23.4-1.8-18.2-4.9-36-4.1-53,4.5-6.6,3.3-12.5,7.7-16.6,13.9-3.3,4.9-4.8,10.4-6,16.1-1.2,5.8-1.7,11.7-1.3,17.6.2,2.8.3,4.1,1.4,10.6-.8-1.1-1.6-2.2-2.1-2.9-5.2-8-7.9-16.7-7.8-26.2.1-14.7,5.4-27.2,16.1-37.2,6.9-6.4,15.4-9.9,24.6-11.7,12.4-2.3,24.7-1.5,36.9,1.2,7.1,1.6,13.9,4,21,5.6,14.2,3.2,26.3-.7,36-11.7,1-1.1,1.7-2.1,1.7-2.1Z"/>
      <path class="cls-3" d="M124.1,111.4c4.7-4.6,10.4-9.4,14.7-13,11.6-9.7,24.4-17.6,37.8-24.6,4.9-2.5,10-4.4,15.6-4.5,5.9-.1,10.1,2.6,12.4,7.9,2.3,5.2,3.6,10.7,4.3,16.3,1.5,11,1.3,21.9.6,32.9-.2,2.7-.6,5.3-.7,8,0,1.8-.1,3.7.2,5.5.9,4.2,4,6.7,8.3,6.9,6.7.2,12.2-2.6,16.9-6.9,2.8-2.6,5-6,7.1-9.2s1.2-4.1,0-5.9c-1.8-2.7-3.8-5.9-4.5-9.2-1.1-4.9,2.2-9.2,7.4-10.4,2.8-.6,3.4-2.2,1.6-4.5-.6-.7-1.3-1.4-2.1-1.9-8.3-5.7-16.6-11.5-25.1-16.9-4.7-3-7.4-7.1-7.4-12.6,0-10.2-5.2-17.1-13.9-21.7-9.8-5.1-20.4-8-31.3-9.4-19.2-2.4-38-.9-56.7,3.9-.4.1-1.5.5-1.5.5,6.8,5.8,13.7,11.6,15.5,20.8-.7-.4-1.4-.8-2-1.3-6.7-4.3-13.8-7.7-21.8-9-7.3-1.2-14.3-.4-20.9,2.9-3.7,1.9-5.2,5.5-5.6,9.6-.6,7,2.4,12.9,6.5,18.1,3.3,4.1,7.1,7.8,10.8,11.6-2.3.6-4.9.3-7.5-.3-7.9-1.9-14.2-6.5-19.8-12.2-2-2-3.9-4.2-5.9-6.4-12.8,9.4-21.6,22.1-29,35.9-.1,0-.3,0-.4,0,.3-1.9.5-3.9,1-5.8,2.8-11.1,8.4-20.8,15.5-29.7,4.4-5.5,9.4-10.3,15.3-14.2.7-.4,1.4-.8,2.3-1.4,1.3,7,3.5,14.5,9.2,19,0,0-1.4-2.9-2-3.8-2.1-3.7-3.6-7.6-4.1-11.9-.6-6,1.3-11.2,5-15.9,10.3-6,21.1-7.8,32.5-3.5.4.2,2.8,1.4,2.8,1.4,0,0-.7-1.8-3.4-3.5-3.5-2.2-7.2-3.9-11.3-5.4.3-.2.8-.5,1.4-.8,6.1-3,12.5-4.9,19.1-6.3,11.5-2.5,23.3-3.7,35-3.5,15.8.3,31.2,2.4,45.6,9.1,5.9,2.7,11.4,6.1,16.1,10.6,4.1,3.9,6,8.9,7.4,14.2.9,3.6,1.6,7.2,2.4,10.8,1,4.2,3.3,7.4,6.9,9.9,9.1,6.3,18,12.9,27.1,19.1,3.9,2.7,4.7,6,3.7,10.3-1.6,6.5-5.2,12-9.5,17-.4.5-.7,1-.9,1.6-2.6,7.4-5.9,14.4-11.4,20.2-6.6,7-14.9,10.5-24.3,11.9-6.5.9-13,1.4-19.5-2.3-3.9-2.2-6.7-7.6-6.2-12s4.1-11.7,6.6-17.3c1.6-3.7,3.4-7.3,5-11,1.3-2.8,2-5.8,1.7-8.9-.7-7.6-5.7-11.4-12.4-13.4-6.3-1.9-12.8-1.6-19.2-.5-13,2.1-25,7.2-36.6,13.3l-4.4,2.2Z"/>
      <path class="cls-3" d="M160.5,58.3c-36.2,8.8-65.1,28.8-86.4,59.1-16.9,24-23.9,50.9-20.9,80.3,1.6,15.4,6.5,29.9,14.2,43.4,9.7,18.1,30.6,19.8,37.2,20.5-3.9-3.6-9.4-9-12.9-13.1-15.8-19-24-40.8-24.5-65.6-.2-12.5,1.9-24.8,5.7-36.7,3.8-11.6,8.8-22.7,15.8-32.7,6.3-9,13.9-16.7,22.4-23.6,21.2-17.3,45.6-27.4,72.4-32,4-.7,8-1.2,12.4-1.8-10-1.3-24.3-.4-35.4,2.3Z"/>
    </g>
  </g>
  <rect class="cls-1" y="0" width="283.5" height="283.5"/>
</svg>