<?xml version="1.0" encoding="UTF-8"?>
<svg id="Layer_1" data-name="Layer 1" xmlns="http://www.w3.org/2000/svg" version="1.1" viewBox="0 0 3584.6 3673.6">
  <defs>
    <style>
      .cls-1 {
        fill: #000;
        fill-rule: evenodd;
        stroke-width: 0px;
      }
    </style>
  </defs>
  <g id="Isolation_Mode" data-name="Isolation Mode">
    <path class="cls-1" d="M1080.7,135.2h1423.2c521.9,0,948.8,426.3,948.8,948.1v457.6c-467.8,210.3-939.8,1248.9-1627.6,1023.2-56.7,40.3-187.2,206.2-196.4,332.1-238.2-31.7-512.8-304.7-479.8-599-396.4-286.8-69.1-816.1,245.3-1029.2,673.8-456.7,1609.2-63.9,1088.9,262.6-316.4,198.5-993,329.7-922.6-157.7-185.6,53.5-304.4,399.6-80.9,579.9-207,203.4-167.2,577.2,54.1,700,223.8-579.8,1002.7-504,1317.3-1196.2,236.8-520.6-114.3-1113.9-816.1-1022.8-529.7,68.8-1026.1,515.6-1274.4,1045.5-251.9,537.6-214.4,1257.6,302.9,1620.4,608.8,427,1256.9,31.6,1649.5-485.1,231.4-304.6,433.6-642,740-836.9v811.3c0,521.8-427,949.4-948.8,949.4h-1423.2c-521.8,0-948.8-427-948.8-948.8v-1505.7c0-521.8,427-948.8,948.8-948.8h0Z"/>
  </g>
</svg>