<?xml version="1.0" encoding="UTF-8"?>
<svg id="Layer_1" data-name="Layer 1" xmlns="http://www.w3.org/2000/svg" viewBox="0 0 425.2 425.2">
  <defs>
    <style>
      .cls-1 {
        fill: #222;
      }

      .cls-1, .cls-2, .cls-3, .cls-4, .cls-5, .cls-6, .cls-7, .cls-8, .cls-9, .cls-10, .cls-11, .cls-12, .cls-13, .cls-14, .cls-15, .cls-16, .cls-17, .cls-18 {
        stroke-width: 0px;
      }

      .cls-2 {
        fill: #545454;
      }

      .cls-3 {
        fill: #bbb;
      }

      .cls-4 {
        fill: #9b9b9b;
      }

      .cls-5 {
        fill: #b0b0b0;
      }

      .cls-6 {
        fill: #dbdbdb;
      }

      .cls-7 {
        fill: none;
      }

      .cls-8 {
        fill: #303030;
      }

      .cls-9 {
        fill: #e5e5e5;
      }

      .cls-10 {
        fill: #575757;
      }

      .cls-11 {
        fill: #ddd;
      }

      .cls-12 {
        fill: #7a7a7a;
      }

      .cls-13 {
        fill: #a8a8a8;
      }

      .cls-14 {
        fill: #9c9c9c;
      }

      .cls-15 {
        fill: #d5d5d5;
      }

      .cls-16 {
        fill: #727272;
      }

      .cls-17 {
        fill: #838383;
      }

      .cls-18 {
        fill: #b6b6b6;
      }
    </style>
  </defs>
  <rect class="cls-7" width="425.2" height="425.2"/>
  <path class="cls-17" d="M296.98,352.47c-4.96,5.26-11.75,7.69-17.79,11.17-15.35,8.84-30.94,17.3-46.66,25.49-5.73,2.98-11.89,5.58-18.75,4.6,0-28.32.01-56.63-.03-84.95,0-.43-.61-.86-1.05-1.44-.69.24-1.5.38-2.17.76-11.53,6.55-23.1,13.04-34.55,19.72-8.89,5.19-17.54,10.8-26.49,15.88-5.59,3.18-11.55,5.73-17.34,8.56.02-3.58.05-7.17.06-10.75.07-26.46.14-52.91.21-79.37,4.83-.38,7.9,3.17,11.65,5.2,14.98,8.09,29.99,16.1,44.91,24.29,7.1,3.9,13.97,8.24,21.11,12.06.71.38,2.25,3.24,3.75.45,5.59.34,9.74-3.3,14.17-5.65,14.33-7.6,28.37-15.74,42.52-23.67,8.48-4.75,16.97-9.5,25.45-14.26l.58-.08s.57.13.57.13c-.05,30.62-.11,61.24-.16,91.86Z"/>
  <path class="cls-3" d="M297.51,75.4c12.06,6.56,24.19,12.99,36.16,19.72,8.64,4.85,17.1,10.02,25.55,15.19,6.19,3.78,11.51,8.46,14.3,15.43-1.26.41-2.62.65-3.77,1.27-10.93,5.92-21.8,11.96-32.74,17.87-8.8,4.76-17.74,9.29-26.48,14.15-4.62,2.57-8.95,5.66-13.41,8.51-.33-.1-.66-.14-1-.13l-.86-1.45c.07-17.61.15-35.22.19-52.83.03-11.01,0-22.02.02-33.03,0-1.83-.62-3.99,2.03-4.71Z"/>
  <path class="cls-6" d="M49.24,217.33c0-1.11.02-2.22.02-3.33,2.06-.55,4.31-.74,6.14-1.72,4.94-2.65,9.71-5.62,14.52-8.49,12.51-7.48,24.97-15.04,37.54-22.43,6.24-3.67,12.57-7.2,19.06-10.4,1.89-.93,2.41-1.89,2.35-3.66,1.03.04,2.06.07,3.09.11.16.5.31,1.01.46,1.51-.11,3.02-.3,6.03-.31,9.05-.08,26.97-.13,53.94-.19,80.9-.48.06-.96.09-1.44.09-1.27-.4-2.64-.61-3.8-1.22-15.07-7.94-30.16-15.86-45.14-23.97-6.65-3.61-12.95-7.87-19.63-11.42-3.99-2.12-7.66-5.36-12.68-5.01Z"/>
  <path class="cls-5" d="M131.97,167.4c-1.03-.04-2.06-.07-3.09-.11-1.38-1.17-2.61-2.61-4.16-3.46-4.27-2.33-8.77-4.24-13.01-6.61-18.85-10.53-37.64-21.16-56.45-31.75,2.23-7.75,8.52-12.17,14.69-15.89,18.9-11.38,38.21-22.07,57.38-32.99.92-.53,2.02-.75,3.04-1.11.61.8,1.71,1.56,1.76,2.39.2,3.31.06,6.64.07,9.97.09,26.03.18,52.05.27,78.08-.05.53-.21,1.02-.48,1.48Z"/>
  <path class="cls-12" d="M132.45,165.93c-.09-26.03-.18-52.05-.27-78.08-.01-3.32.13-6.65-.07-9.97-.05-.83-1.14-1.6-1.76-2.39,1.17-.52,2.33-1.03,3.5-1.55.75.64,1.4,1.44,2.25,1.89,9.49,5.07,19.07,9.96,28.49,15.15,14.13,7.78,28.15,15.75,42.19,23.68,1.33.75,2.48,1.8,3.71,2.72l.03,3.41c-9.44,5.79-18.83,11.65-28.32,17.35-9.55,5.74-19.13,11.45-28.84,16.91-6.85,3.85-13.94,7.27-20.92,10.89Z"/>
  <path class="cls-11" d="M297.13,167.56c4.46-2.85,8.79-5.94,13.41-8.51,8.74-4.87,17.68-9.39,26.48-14.15,10.94-5.92,21.81-11.95,32.74-17.87,1.15-.62,2.51-.86,3.77-1.27,3.46,5.79,5.01,12.28,5.07,18.81.21,23.69-.04,47.38-.12,71.07-.46.01-.93.02-1.39.01-14.26-10.61-30.2-18.47-45.31-27.67-11.45-6.97-23.08-13.63-34.64-20.42Z"/>
  <path class="cls-14" d="M132.15,352.25c5.79-2.83,11.74-5.38,17.34-8.56,8.95-5.08,17.6-10.69,26.49-15.88,11.45-6.68,23.02-13.17,34.55-19.72.67-.38,1.48-.52,2.17-.76.44.58,1.05,1.01,1.05,1.44.04,28.32.03,56.63.03,84.95-5.67.7-10.95-1.12-15.79-3.5-10.77-5.3-21.3-11.09-31.84-16.85-8.61-4.7-17.1-9.62-25.59-14.53-3.51-2.03-6.87-4.29-10.31-6.44.63-.06,1.26-.12,1.89-.17Z"/>
  <path class="cls-15" d="M55.25,125.48c18.81,10.59,37.6,21.22,56.45,31.75,4.24,2.37,8.74,4.28,13.01,6.61,1.55.85,2.78,2.29,4.16,3.46.06,1.77-.45,2.73-2.35,3.66-6.49,3.2-12.82,6.73-19.06,10.4-12.57,7.39-25.03,14.95-37.54,22.43-4.81,2.88-9.58,5.84-14.52,8.49-1.83.98-4.08,1.17-6.14,1.72-.07-21.73-.55-43.47,0-65.18.2-7.96.82-16.39,5.98-23.34Z"/>
  <path class="cls-18" d="M132.15,352.25c-.63.06-1.26.12-1.89.17-6.51-3.39-13.14-6.58-19.52-10.22-13.27-7.58-26.47-15.28-39.57-23.15-6.3-3.79-12.35-8.02-15.46-15.16,3.42-1.52,7-2.77,10.24-4.62,11.73-6.69,23.37-13.55,35.01-20.41,9.32-5.49,18.63-11.01,27.85-16.67.88-.54,1.12-2.13,1.66-3.23.48,0,.96-.03,1.44-.09.16,1.09.33,2.18.49,3.27-.07,26.46-.14,52.91-.21,79.37,0,3.58-.04,7.17-.06,10.75Z"/>
  <path class="cls-15" d="M377.08,215.65c.46,0,.93,0,1.39-.01.06,22.85.38,45.7.03,68.55-.11,6.98-1.76,14.03-6.16,19.95-3.29-1.86-6.59-3.7-9.86-5.59-15.18-8.75-30.34-17.54-45.54-26.26-5.38-3.09-10.88-5.97-16.26-9.08-.84-.49-1.28-1.68-1.91-2.54.84-1.03,1.48-2.39,2.55-3.05,5.74-3.53,11.49-7.05,17.4-10.29,19.42-10.63,38.9-21.13,58.36-31.69Z"/>
  <path class="cls-9" d="M130.49,258.96c-.54,1.1-.78,2.69-1.66,3.23-9.22,5.66-18.53,11.18-27.85,16.67-11.64,6.85-23.28,13.72-35.01,20.41-3.24,1.85-6.82,3.1-10.24,4.62-3.25-4.93-4.68-10.37-5.35-16.23-2.71-23.42-1.06-46.88-1.12-70.32,5.01-.35,8.69,2.88,12.68,5.01,6.68,3.55,12.98,7.82,19.63,11.42,14.98,8.12,30.07,16.03,45.14,23.97,1.16.61,2.53.82,3.8,1.22Z"/>
  <path class="cls-4" d="M297.51,75.4c-2.65.72-2.03,2.88-2.03,4.71-.02,11.01.01,22.02-.02,33.03-.05,17.61-.13,35.22-.19,52.83-5.8-3.02-11.71-5.83-17.37-9.1-20.82-12.04-41.55-24.23-62.32-36.37.58-1.06.9-2.61,1.79-3.09,4.52-2.45,9.29-4.45,13.78-6.94,14.2-7.86,28.3-15.89,42.47-23.8,5.9-3.3,11.91-6.39,17.78-9.75,1.05-.6,1.63-2.05,2.42-3.11,1.23.53,2.46,1.06,3.69,1.59Z"/>
  <path class="cls-16" d="M293.83,73.81c-.79,1.06-1.36,2.51-2.42,3.11-5.86,3.36-11.88,6.46-17.78,9.75-14.17,7.91-28.27,15.94-42.47,23.8-4.5,2.49-9.27,4.49-13.78,6.94-.89.49-1.21,2.03-1.79,3.09-1.69.09-3.37.18-5.06.27l-.03-3.41c1.01-.11,2.02-.22,3.39-.37V34.18c7.68-.82,14.51,2.23,20.98,5.49,10.66,5.37,20.93,11.52,31.35,17.36,8.04,4.51,16.09,9.03,24.08,13.64,1.33.77,2.36,2.07,3.52,3.13Z"/>
  <path class="cls-13" d="M298.78,260.67c.63.87,1.06,2.06,1.91,2.54,5.37,3.11,10.87,5.99,16.26,9.08,15.2,8.72,30.36,17.51,45.54,26.26,3.27,1.89,6.57,3.72,9.86,5.59-1.79,5.23-5.91,8.52-10.21,11.38-8.38,5.57-16.86,11.01-25.57,16.04-11.79,6.81-23.81,13.2-35.77,19.71-1.15.63-2.54.82-3.82,1.21.05-30.62.11-61.24.16-91.86.55.02,1.1.04,1.64.06Z"/>
  <path class="cls-10" d="M213.89,34.18v82.82c-1.37.15-2.38.26-3.39.37-1.23-.91-2.39-1.97-3.71-2.72-14.04-7.93-28.07-15.9-42.19-23.68-9.42-5.19-19-10.08-28.49-15.15-.84-.45-1.5-1.25-2.25-1.89.88-1,1.57-2.32,2.66-2.94,17.81-10.11,35.47-20.53,53.63-29.99,7.23-3.76,15.07-7.24,23.74-6.83Z"/>
  <path class="cls-8" d="M295.98,260.57c-8.48,4.75-16.97,9.5-25.45,14.26-14.15,7.93-28.19,16.07-42.52,23.67-4.43,2.35-8.58,5.99-14.17,5.65,0-30.61,0-61.22,0-91.82,2.53-1.22,5.12-2.34,7.58-3.69,16.21-8.92,31.58-19.37,48.87-26.28,1.74-.7,3.51-1.46,5.06-2.5,4.24-2.86,8.22-6.15,12.62-8.74,2.2-1.29,5.07-1.43,7.65-2.09.07,3.05.19,6.1.19,9.14.07,27.47.13,54.93.19,82.4Z"/>
  <path class="cls-2" d="M213.83,212.32c0,30.61,0,61.22,0,91.82-1.5,2.78-3.03-.07-3.75-.45-7.14-3.82-14.01-8.16-21.11-12.06-14.92-8.19-29.93-16.21-44.91-24.29-3.75-2.03-6.82-5.58-11.65-5.2-.16-1.09-.33-2.18-.49-3.27.06-26.97.11-53.94.19-80.9,0-3.02.2-6.03.31-9.05,2.34.62,4.91.81,6.97,1.94,14.48,8,29.03,15.91,43.19,24.44,7.18,4.33,15.26,7.08,21.68,12.86,2.45,2.21,6.33,2.82,9.56,4.16Z"/>
  <path class="cls-9" d="M295.98,260.57c-.06-27.47-.12-54.93-.19-82.4,0-3.05-.13-6.1-.19-9.14.18-.53.35-1.07.53-1.6.34,0,.68.04,1,.13,11.55,6.8,23.19,13.45,34.64,20.42,15.12,9.21,31.05,17.07,45.31,27.67-19.46,10.55-38.94,21.06-58.36,31.69-5.91,3.23-11.66,6.75-17.4,10.29-1.07.66-1.71,2.01-2.55,3.05-.55-.02-1.1-.04-1.64-.06l-.57-.13-.58.08Z"/>
  <path class="cls-1" d="M296.13,167.42c-.18.53-.35,1.07-.53,1.6-2.57.66-5.45.79-7.65,2.09-4.4,2.59-8.37,5.88-12.62,8.74-1.55,1.04-3.31,1.81-5.06,2.5-17.29,6.91-32.67,17.36-48.87,26.28-2.46,1.35-5.05,2.47-7.58,3.69-3.23-1.34-7.11-1.96-9.56-4.16-6.42-5.78-14.5-8.53-21.68-12.86-14.17-8.53-28.71-16.44-43.19-24.44-2.05-1.13-4.63-1.32-6.97-1.94-.15-.51-.3-1.01-.46-1.51.27-.46.43-.95.48-1.48,6.98-3.61,14.07-7.03,20.92-10.89,9.71-5.46,19.29-11.18,28.84-16.91,9.49-5.7,18.88-11.56,28.32-17.35,1.69-.09,3.37-.18,5.06-.27,20.77,12.14,41.5,24.33,62.32,36.37,5.65,3.27,11.57,6.08,17.37,9.1l.86,1.45Z"/>
</svg>